<?xml version="1.0" standalone="no"?>
 <!DOCTYPE svg PUBLIC "-//W3C//DTD SVG 1.1//EN" 
 "http://www.w3.org/Graphics/SVG/1.1/DTD/svg11.dtd"> 
<svg
  xmlns:svg="http://www.w3.org/2000/svg"
  xmlns="http://www.w3.org/2000/svg"
  xmlns:xlink="http://www.w3.org/1999/xlink"
  version="1.1"
  width="53.4670mm" height="59.2582mm" viewBox="0.0000 0.0000 53.4670 59.2582">
<title>SVG Image created as SIMPLE_MOTOR_DRIVER-brd.svg date 2024/07/17 20:39:07 </title>
  <desc>Image generated by PCBNEW </desc>
<g style="fill:#000000; fill-opacity:1.0000;stroke:#000000; stroke-opacity:1.0000;
stroke-linecap:round; stroke-linejoin:round;"
 transform="translate(0 0) scale(1 1)">
<path style="fill:#4D7FC4; fill-opacity:1.0000; stroke:none;fill-rule:evenodd;"
d="M 20.2058,27.2082
20.2058,25.2082
22.1108,25.2082
22.1108,27.2082
Z" /> 
</g>
<g style="fill:none; 
stroke:#4D7FC4; stroke-width:1.9050; stroke-opacity:1; 
stroke-linecap:round; stroke-linejoin:round;">
<path d="M23.6983 26.1608
L23.6983 26.2557
" />
<path d="M26.2383 26.1608
L26.2383 26.2557
" />
<path style="fill:#4D7FC4; fill-opacity:1.0000; stroke:none;fill-rule:evenodd;"
d="M 11.8483,47.3783
10.1483,47.3783
10.1483,45.6782
11.8483,45.6782
Z" /> 
</g>
<g style="fill:#4D7FC4; fill-opacity:1.0000; stroke:none;">
<circle cx="13.5383" cy="46.5282" r="0.8500" /> 
<circle cx="16.0783" cy="46.5282" r="0.8500" /> 
<circle cx="18.6183" cy="54.1882" r="0.8000" /> 
</g>
<g style="fill:#4D7FC4; fill-opacity:1.0000; stroke:none;">
<circle cx="23.6983" cy="54.1882" r="0.8000" /> 
<path style="fill:#4D7FC4; fill-opacity:1.0000; stroke:none;fill-rule:evenodd;"
d="M 17.6683,10.4082
17.6683,6.4482
19.6483,6.4482
19.6483,10.4082
Z" /> 
</g>
<g style="fill:none; 
stroke:#4D7FC4; stroke-width:1.9800; stroke-opacity:1; 
stroke-linecap:round; stroke-linejoin:round;">
<path d="M23.6583 7.4383
L23.6583 9.4183
" />
</g>
<g style="fill:#4D7FC4; fill-opacity:1.0000; stroke:none;">
<circle cx="26.1583" cy="49.1082" r="0.8000" /> 
</g>
<g style="fill:#4D7FC4; fill-opacity:1.0000; stroke:none;">
<circle cx="21.1583" cy="49.1082" r="0.8000" /> 
<path style="fill:#4D7FC4; fill-opacity:1.0000; stroke:none;fill-rule:evenodd;"
d="M 7.6583,54.9482
7.6583,53.3483
9.2583,53.3483
9.2583,54.9482
Z" /> 
</g>
<g style="fill:#4D7FC4; fill-opacity:1.0000; stroke:none;">
<circle cx="16.0783" cy="54.1482" r="0.8000" /> 
<circle cx="28.7783" cy="44.0282" r="0.8000" /> 
</g>
<g style="fill:#4D7FC4; fill-opacity:1.0000; stroke:none;">
<circle cx="23.6983" cy="44.0282" r="0.8000" /> 
<path style="fill:#4D7FC4; fill-opacity:1.0000; stroke:none;fill-rule:evenodd;"
d="M 17.8183,16.8483
17.8183,15.2482
19.4183,15.2482
19.4183,16.8483
Z" /> 
<circle cx="23.6983" cy="16.0482" r="0.8000" /> 
<circle cx="21.1583" cy="18.5882" r="0.8000" /> 
</g>
<g style="fill:#4D7FC4; fill-opacity:1.0000; stroke:none;">
<circle cx="26.2383" cy="18.5882" r="0.8000" /> 
<circle cx="23.6983" cy="41.4883" r="0.8000" /> 
</g>
<g style="fill:#4D7FC4; fill-opacity:1.0000; stroke:none;">
<circle cx="13.5383" cy="41.4883" r="0.8000" /> 
<path style="fill:#4D7FC4; fill-opacity:1.0000; stroke:none;fill-rule:evenodd;"
d="M 7.5083,10.4082
7.5083,6.4482
9.4883,6.4482
9.4883,10.4082
Z" /> 
</g>
<g style="fill:none; 
stroke:#4D7FC4; stroke-width:1.9800; stroke-opacity:1; 
stroke-linecap:round; stroke-linejoin:round;">
<path d="M13.4983 7.4383
L13.4983 9.4183
" />
</g>
<g style="fill:#4D7FC4; fill-opacity:1.0000; stroke:none;">
<circle cx="18.6183" cy="28.7882" r="0.8000" /> 
</g>
<g style="fill:#4D7FC4; fill-opacity:1.0000; stroke:none;">
<circle cx="26.2383" cy="28.7882" r="0.8000" /> 
<circle cx="18.6183" cy="46.5682" r="0.8000" /> 
</g>
<g style="fill:#4D7FC4; fill-opacity:1.0000; stroke:none;">
<circle cx="21.1583" cy="46.5682" r="0.8000" /> 
<path style="fill:#4D7FC4; fill-opacity:1.0000; stroke:none;fill-rule:evenodd;"
d="M 16.8783,50.8083
16.8783,52.4082
15.2783,52.4082
15.2783,50.8083
Z" /> 
<circle cx="13.5383" cy="51.6082" r="0.8000" /> 
<circle cx="31.3183" cy="46.5682" r="0.8000" /> 
</g>
<g style="fill:#4D7FC4; fill-opacity:1.0000; stroke:none;">
<circle cx="23.6983" cy="46.5682" r="0.8000" /> 
<path style="fill:#4D7FC4; fill-opacity:1.0000; stroke:none;fill-rule:evenodd;"
d="M 19.4183,39.7482
17.8183,39.7482
17.8183,38.1482
19.4183,38.1482
Z" /> 
<circle cx="21.1583" cy="38.9483" r="0.8000" /> 
<circle cx="23.6983" cy="38.9483" r="0.8000" /> 
<circle cx="26.2383" cy="38.9483" r="0.8000" /> 
<circle cx="26.2383" cy="31.3282" r="0.8000" /> 
<circle cx="23.6983" cy="31.3282" r="0.8000" /> 
<circle cx="21.1583" cy="31.3282" r="0.8000" /> 
<circle cx="18.6183" cy="31.3282" r="0.8000" /> 
<path style="fill:#4D7FC4; fill-opacity:1.0000; stroke:none;fill-rule:evenodd;"
d="M 20.4083,52.3582
20.4083,50.8582
21.9083,50.8582
21.9083,52.3582
Z" /> 
<circle cx="23.6983" cy="51.6082" r="0.7500" /> 
</g>
<g style="fill:#4D7FC4; fill-opacity:1.0000; stroke:none;">
<circle cx="26.2383" cy="51.6082" r="0.7500" /> 
</g>
<g style="fill:#ECECEC; fill-opacity:1.0000; stroke:none;">
<circle cx="26.2383" cy="13.5082" r="0.3000" /> 
</g>
<g style="fill:#ECECEC; fill-opacity:1.0000; stroke:none;">
<circle cx="8.4583" cy="13.5082" r="0.3000" /> 
</g>
<g style="fill:#ECECEC; fill-opacity:1.0000; stroke:none;">
<circle cx="28.7783" cy="13.5082" r="0.3000" /> 
</g>
<g style="fill:#ECECEC; fill-opacity:1.0000; stroke:none;">
<circle cx="26.2383" cy="13.5082" r="0.3000" /> 
</g>
<g style="fill:#ECECEC; fill-opacity:1.0000; stroke:none;">
<circle cx="16.0783" cy="33.8282" r="0.3000" /> 
</g>
<g style="fill:#ECECEC; fill-opacity:1.0000; stroke:none;">
<circle cx="26.2383" cy="33.8282" r="0.3000" /> 
</g>
<g style="fill:none; 
stroke:#4D7FC4; stroke-width:1.2700; stroke-opacity:1; 
stroke-linecap:round; stroke-linejoin:round;">
<path d="M26.2383 49.1882
L26.1583 49.1082
" />
</g>
<g style="fill:none; 
stroke:#4D7FC4; stroke-width:0.5080; stroke-opacity:1; 
stroke-linecap:round; stroke-linejoin:round;">
<path d="M28.7783 21.1282
L28.7783 38.9082
" />
</g>
<g style="fill:none; 
stroke:#4D7FC4; stroke-width:1.2700; stroke-opacity:1; 
stroke-linecap:round; stroke-linejoin:round;">
<path d="M26.2383 49.0282
L26.1583 49.1082
" />
</g>
<g style="fill:none; 
stroke:#4D7FC4; stroke-width:0.5080; stroke-opacity:1; 
stroke-linecap:round; stroke-linejoin:round;">
<path d="M8.4583 36.3682
L8.4583 33.8282
" />
</g>
<g style="fill:none; 
stroke:#4D7FC4; stroke-width:1.2700; stroke-opacity:1; 
stroke-linecap:round; stroke-linejoin:round;">
<path d="M26.2383 51.6082
L26.2383 49.1882
" />
</g>
<g style="fill:none; 
stroke:#4D7FC4; stroke-width:0.5080; stroke-opacity:1; 
stroke-linecap:round; stroke-linejoin:round;">
<path d="M8.4983 33.7882
L8.4983 13.5482
" />
<path d="M26.2383 38.9483
L28.7383 38.9483
" />
</g>
<g style="fill:none; 
stroke:#4D7FC4; stroke-width:1.2700; stroke-opacity:1; 
stroke-linecap:round; stroke-linejoin:round;">
<path d="M26.2383 21.1282
L26.2383 26.2082
" />
</g>
<g style="fill:none; 
stroke:#4D7FC4; stroke-width:0.5080; stroke-opacity:1; 
stroke-linecap:round; stroke-linejoin:round;">
<path d="M8.4583 33.8282
L8.4983 33.7882
" />
</g>
<g style="fill:none; 
stroke:#4D7FC4; stroke-width:1.2700; stroke-opacity:1; 
stroke-linecap:round; stroke-linejoin:round;">
<path d="M26.2383 18.5882
L26.2383 13.5082
" />
</g>
<g style="fill:none; 
stroke:#4D7FC4; stroke-width:0.2000; stroke-opacity:1; 
stroke-linecap:round; stroke-linejoin:round;">
<path d="M28.7783 38.9082
L28.7383 38.9483
" />
</g>
<g style="fill:none; 
stroke:#4D7FC4; stroke-width:1.2700; stroke-opacity:1; 
stroke-linecap:round; stroke-linejoin:round;">
<path d="M26.2383 18.5882
L26.2383 21.1282
" />
</g>
<g style="fill:none; 
stroke:#4D7FC4; stroke-width:0.2000; stroke-opacity:1; 
stroke-linecap:round; stroke-linejoin:round;">
<path d="M31.3183 38.9082
L28.7783 38.9082
" />
</g>
<g style="fill:none; 
stroke:#4D7FC4; stroke-width:0.5080; stroke-opacity:1; 
stroke-linecap:round; stroke-linejoin:round;">
<path d="M28.7783 13.5082
L28.7783 21.1282
" />
<path d="M8.4583 8.4682
L8.4983 8.4283
" />
<path d="M26.2383 38.9483
L26.2383 49.0282
" />
</g>
<g style="fill:none; 
stroke:#4D7FC4; stroke-width:1.2700; stroke-opacity:1; 
stroke-linecap:round; stroke-linejoin:round;">
<path d="M8.4983 13.4682
L8.4983 8.4283
" />
</g>
<g style="fill:none; 
stroke:#4D7FC4; stroke-width:0.2000; stroke-opacity:1; 
stroke-linecap:round; stroke-linejoin:round;">
<path d="M31.3183 46.5682
L31.3183 38.9082
" />
</g>
<g style="fill:none; 
stroke:#4D7FC4; stroke-width:0.5080; stroke-opacity:1; 
stroke-linecap:round; stroke-linejoin:round;">
<path d="M8.4583 54.1482
L8.4583 36.3682
" />
<path d="M23.6983 33.8682
L23.6983 31.3282
" />
<path d="M21.1583 36.4082
L23.6983 33.8682
" />
<path d="M21.1583 38.9483
L21.1583 36.4082
" />
<path d="M21.1583 49.1082
L21.1583 46.5682
" />
<path d="M21.1583 46.5682
L21.1583 38.9483
" />
<path d="M16.0783 51.6082
L16.0783 54.1482
" />
<path d="M13.5383 51.6082
L13.5383 46.5282
" />
</g>
<g style="fill:none; 
stroke:#4D7FC4; stroke-width:1.2700; stroke-opacity:1; 
stroke-linecap:round; stroke-linejoin:round;">
<path d="M23.7383 13.4682
L23.7383 8.5083
" />
<path d="M23.6983 13.5082
L23.7383 13.4682
" />
<path d="M23.7383 8.5083
L23.6583 8.4283
" />
<path d="M23.6983 26.2082
L23.6983 13.5082
" />
</g>
<g style="fill:none; 
stroke:#4D7FC4; stroke-width:0.5080; stroke-opacity:1; 
stroke-linecap:round; stroke-linejoin:round;">
<path d="M18.6183 28.7882
L18.6183 31.3282
" />
<path d="M13.5383 41.4883
L13.5383 8.4682
" />
<path d="M18.6183 28.7882
L18.6183 13.5082
" />
<path d="M18.6583 13.4682
L18.6583 8.4283
" />
</g>
<g style="fill:none; 
stroke:#4D7FC4; stroke-width:1.2700; stroke-opacity:1; 
stroke-linecap:round; stroke-linejoin:round;">
<path d="M13.5383 8.4682
L13.4983 8.4283
" />
<path d="M13.4983 8.4283
L18.6583 8.4283
" />
</g>
<g style="fill:none; 
stroke:#4D7FC4; stroke-width:0.5080; stroke-opacity:1; 
stroke-linecap:round; stroke-linejoin:round;">
<path d="M21.1583 18.5882
L21.1583 31.3282
" />
<path d="M18.6183 38.9483
L18.6183 46.5682
" />
<path d="M18.6183 46.5682
L18.6183 54.1882
" />
<path d="M26.2383 31.3282
L26.2383 33.8282
" />
<path d="M16.0783 46.5282
L16.0783 33.8282
" />
<path d="M26.2383 28.7882
L26.2383 31.3282
" />
<path d="M23.6983 44.0282
L23.6983 41.4883
" />
<path d="M23.6983 38.9483
L23.6983 41.4883
" />
<path d="M23.6983 46.5682
L23.6983 44.0282
" />
</g>
<g style="fill:none; 
stroke:#4D7FC4; stroke-width:0.2000; stroke-opacity:1; 
stroke-linecap:round; stroke-linejoin:round;">
<path d="M21.1583 56.6882
L28.7783 56.6882
" />
<path d="M21.1583 51.6082
L21.1583 56.6882
" />
<path d="M28.7783 56.6882
L28.7783 44.0282
" />
</g>
<g style="fill:none; 
stroke:#4D7FC4; stroke-width:1.2700; stroke-opacity:1; 
stroke-linecap:round; stroke-linejoin:round;">
<path d="M23.6983 51.6082
L23.6983 54.1882
" />
</g>
<g style="fill:#FFFFFF; fill-opacity:1.0000; stroke:none;">
<circle cx="26.2383" cy="13.5082" r="0.1500" /> 
</g>
<g style="fill:#FFFFFF; fill-opacity:1.0000; stroke:none;">
<circle cx="8.4583" cy="13.5082" r="0.1500" /> 
</g>
<g style="fill:#FFFFFF; fill-opacity:1.0000; stroke:none;">
<circle cx="28.7783" cy="13.5082" r="0.1500" /> 
</g>
<g style="fill:#FFFFFF; fill-opacity:1.0000; stroke:none;">
<circle cx="26.2383" cy="13.5082" r="0.1500" /> 
</g>
<g style="fill:#FFFFFF; fill-opacity:1.0000; stroke:none;">
<circle cx="16.0783" cy="33.8282" r="0.1500" /> 
</g>
<g style="fill:#FFFFFF; fill-opacity:1.0000; stroke:none;">
<circle cx="26.2383" cy="33.8282" r="0.1500" /> 
</g>
<g style="fill:#FFFFFF; fill-opacity:1.0000; stroke:none;">
<circle cx="21.1583" cy="26.2082" r="0.5500" /> 
</g>
<g style="fill:#FFFFFF; fill-opacity:1.0000; stroke:none;">
<circle cx="23.6983" cy="26.2082" r="0.5500" /> 
</g>
<g style="fill:#FFFFFF; fill-opacity:1.0000; stroke:none;">
<circle cx="26.2383" cy="26.2082" r="0.5500" /> 
</g>
<g style="fill:#FFFFFF; fill-opacity:1.0000; stroke:none;">
<circle cx="10.9983" cy="46.5282" r="0.5000" /> 
</g>
<g style="fill:#FFFFFF; fill-opacity:1.0000; stroke:none;">
<circle cx="13.5383" cy="46.5282" r="0.5000" /> 
</g>
<g style="fill:#FFFFFF; fill-opacity:1.0000; stroke:none;">
<circle cx="16.0783" cy="46.5282" r="0.5000" /> 
</g>
<g style="fill:#FFFFFF; fill-opacity:1.0000; stroke:none;">
<circle cx="18.6183" cy="54.1882" r="0.4000" /> 
</g>
<g style="fill:#FFFFFF; fill-opacity:1.0000; stroke:none;">
<circle cx="23.6983" cy="54.1882" r="0.4000" /> 
</g>
<g style="fill:#FFFFFF; fill-opacity:1.0000; stroke:none;">
<circle cx="18.6583" cy="8.4283" r="0.6600" /> 
</g>
<g style="fill:#FFFFFF; fill-opacity:1.0000; stroke:none;">
<circle cx="23.6583" cy="8.4283" r="0.6600" /> 
</g>
<g style="fill:#FFFFFF; fill-opacity:1.0000; stroke:none;">
<circle cx="26.1583" cy="49.1082" r="0.4000" /> 
</g>
<g style="fill:#FFFFFF; fill-opacity:1.0000; stroke:none;">
<circle cx="21.1583" cy="49.1082" r="0.4000" /> 
</g>
<g style="fill:#FFFFFF; fill-opacity:1.0000; stroke:none;">
<circle cx="8.4583" cy="54.1482" r="0.4000" /> 
</g>
<g style="fill:#FFFFFF; fill-opacity:1.0000; stroke:none;">
<circle cx="16.0783" cy="54.1482" r="0.4000" /> 
</g>
<g style="fill:#FFFFFF; fill-opacity:1.0000; stroke:none;">
<circle cx="28.7783" cy="44.0282" r="0.4000" /> 
</g>
<g style="fill:#FFFFFF; fill-opacity:1.0000; stroke:none;">
<circle cx="23.6983" cy="44.0282" r="0.4000" /> 
</g>
<g style="fill:#FFFFFF; fill-opacity:1.0000; stroke:none;">
<circle cx="18.6183" cy="16.0482" r="0.4000" /> 
</g>
<g style="fill:#FFFFFF; fill-opacity:1.0000; stroke:none;">
<circle cx="23.6983" cy="16.0482" r="0.4000" /> 
</g>
<g style="fill:#FFFFFF; fill-opacity:1.0000; stroke:none;">
<circle cx="21.1583" cy="18.5882" r="0.4000" /> 
</g>
<g style="fill:#FFFFFF; fill-opacity:1.0000; stroke:none;">
<circle cx="26.2383" cy="18.5882" r="0.4000" /> 
</g>
<g style="fill:#FFFFFF; fill-opacity:1.0000; stroke:none;">
<circle cx="23.6983" cy="41.4883" r="0.4000" /> 
</g>
<g style="fill:#FFFFFF; fill-opacity:1.0000; stroke:none;">
<circle cx="13.5383" cy="41.4883" r="0.4000" /> 
</g>
<g style="fill:#FFFFFF; fill-opacity:1.0000; stroke:none;">
<circle cx="8.4983" cy="8.4283" r="0.6600" /> 
</g>
<g style="fill:#FFFFFF; fill-opacity:1.0000; stroke:none;">
<circle cx="13.4983" cy="8.4283" r="0.6600" /> 
</g>
<g style="fill:#FFFFFF; fill-opacity:1.0000; stroke:none;">
<circle cx="18.6183" cy="28.7882" r="0.4000" /> 
</g>
<g style="fill:#FFFFFF; fill-opacity:1.0000; stroke:none;">
<circle cx="26.2383" cy="28.7882" r="0.4000" /> 
</g>
<g style="fill:#FFFFFF; fill-opacity:1.0000; stroke:none;">
<circle cx="18.6183" cy="46.5682" r="0.4000" /> 
</g>
<g style="fill:#FFFFFF; fill-opacity:1.0000; stroke:none;">
<circle cx="21.1583" cy="46.5682" r="0.4000" /> 
</g>
<g style="fill:#FFFFFF; fill-opacity:1.0000; stroke:none;">
<circle cx="16.0783" cy="51.6082" r="0.4000" /> 
</g>
<g style="fill:#FFFFFF; fill-opacity:1.0000; stroke:none;">
<circle cx="13.5383" cy="51.6082" r="0.4000" /> 
</g>
<g style="fill:#FFFFFF; fill-opacity:1.0000; stroke:none;">
<circle cx="31.3183" cy="46.5682" r="0.4000" /> 
</g>
<g style="fill:#FFFFFF; fill-opacity:1.0000; stroke:none;">
<circle cx="23.6983" cy="46.5682" r="0.4000" /> 
</g>
<g style="fill:#FFFFFF; fill-opacity:1.0000; stroke:none;">
<circle cx="18.6183" cy="38.9483" r="0.4000" /> 
</g>
<g style="fill:#FFFFFF; fill-opacity:1.0000; stroke:none;">
<circle cx="21.1583" cy="38.9483" r="0.4000" /> 
</g>
<g style="fill:#FFFFFF; fill-opacity:1.0000; stroke:none;">
<circle cx="23.6983" cy="38.9483" r="0.4000" /> 
</g>
<g style="fill:#FFFFFF; fill-opacity:1.0000; stroke:none;">
<circle cx="26.2383" cy="38.9483" r="0.4000" /> 
</g>
<g style="fill:#FFFFFF; fill-opacity:1.0000; stroke:none;">
<circle cx="26.2383" cy="31.3282" r="0.4000" /> 
</g>
<g style="fill:#FFFFFF; fill-opacity:1.0000; stroke:none;">
<circle cx="23.6983" cy="31.3282" r="0.4000" /> 
</g>
<g style="fill:#FFFFFF; fill-opacity:1.0000; stroke:none;">
<circle cx="21.1583" cy="31.3282" r="0.4000" /> 
</g>
<g style="fill:#FFFFFF; fill-opacity:1.0000; stroke:none;">
<circle cx="18.6183" cy="31.3282" r="0.4000" /> 
</g>
<g style="fill:#FFFFFF; fill-opacity:1.0000; stroke:none;">
<circle cx="21.1583" cy="51.6082" r="0.4000" /> 
</g>
<g style="fill:#FFFFFF; fill-opacity:1.0000; stroke:none;">
<circle cx="23.6983" cy="51.6082" r="0.4000" /> 
</g>
<g style="fill:#FFFFFF; fill-opacity:1.0000; stroke:none;">
<circle cx="26.2383" cy="51.6082" r="0.4000" /> 
</g>
<g style="fill:#FFFFFF; fill-opacity:1.0000; stroke:none;">
<circle cx="21.1583" cy="26.2082" r="0.5500" /> 
</g>
<g style="fill:#FFFFFF; fill-opacity:1.0000; stroke:none;">
<circle cx="23.6983" cy="26.2082" r="0.5500" /> 
</g>
<g style="fill:#FFFFFF; fill-opacity:1.0000; stroke:none;">
<circle cx="26.2383" cy="26.2082" r="0.5500" /> 
</g>
<g style="fill:#FFFFFF; fill-opacity:1.0000; stroke:none;">
<circle cx="10.9983" cy="46.5282" r="0.5000" /> 
</g>
<g style="fill:#FFFFFF; fill-opacity:1.0000; stroke:none;">
<circle cx="13.5383" cy="46.5282" r="0.5000" /> 
</g>
<g style="fill:#FFFFFF; fill-opacity:1.0000; stroke:none;">
<circle cx="16.0783" cy="46.5282" r="0.5000" /> 
</g>
<g style="fill:#FFFFFF; fill-opacity:1.0000; stroke:none;">
<circle cx="18.6183" cy="54.1882" r="0.4000" /> 
</g>
<g style="fill:#FFFFFF; fill-opacity:1.0000; stroke:none;">
<circle cx="23.6983" cy="54.1882" r="0.4000" /> 
</g>
<g style="fill:#FFFFFF; fill-opacity:1.0000; stroke:none;">
<circle cx="18.6583" cy="8.4283" r="0.6600" /> 
</g>
<g style="fill:#FFFFFF; fill-opacity:1.0000; stroke:none;">
<circle cx="23.6583" cy="8.4283" r="0.6600" /> 
</g>
<g style="fill:#FFFFFF; fill-opacity:1.0000; stroke:none;">
<circle cx="26.1583" cy="49.1082" r="0.4000" /> 
</g>
<g style="fill:#FFFFFF; fill-opacity:1.0000; stroke:none;">
<circle cx="21.1583" cy="49.1082" r="0.4000" /> 
</g>
<g style="fill:#FFFFFF; fill-opacity:1.0000; stroke:none;">
<circle cx="8.4583" cy="54.1482" r="0.4000" /> 
</g>
<g style="fill:#FFFFFF; fill-opacity:1.0000; stroke:none;">
<circle cx="16.0783" cy="54.1482" r="0.4000" /> 
</g>
<g style="fill:#FFFFFF; fill-opacity:1.0000; stroke:none;">
<circle cx="28.7783" cy="44.0282" r="0.4000" /> 
</g>
<g style="fill:#FFFFFF; fill-opacity:1.0000; stroke:none;">
<circle cx="23.6983" cy="44.0282" r="0.4000" /> 
</g>
<g style="fill:#FFFFFF; fill-opacity:1.0000; stroke:none;">
<circle cx="18.6183" cy="16.0482" r="0.4000" /> 
</g>
<g style="fill:#FFFFFF; fill-opacity:1.0000; stroke:none;">
<circle cx="23.6983" cy="16.0482" r="0.4000" /> 
</g>
<g style="fill:#FFFFFF; fill-opacity:1.0000; stroke:none;">
<circle cx="21.1583" cy="18.5882" r="0.4000" /> 
</g>
<g style="fill:#FFFFFF; fill-opacity:1.0000; stroke:none;">
<circle cx="26.2383" cy="18.5882" r="0.4000" /> 
</g>
<g style="fill:#FFFFFF; fill-opacity:1.0000; stroke:none;">
<circle cx="23.6983" cy="41.4883" r="0.4000" /> 
</g>
<g style="fill:#FFFFFF; fill-opacity:1.0000; stroke:none;">
<circle cx="13.5383" cy="41.4883" r="0.4000" /> 
</g>
<g style="fill:#FFFFFF; fill-opacity:1.0000; stroke:none;">
<circle cx="8.4983" cy="8.4283" r="0.6600" /> 
</g>
<g style="fill:#FFFFFF; fill-opacity:1.0000; stroke:none;">
<circle cx="13.4983" cy="8.4283" r="0.6600" /> 
</g>
<g style="fill:#FFFFFF; fill-opacity:1.0000; stroke:none;">
<circle cx="18.6183" cy="28.7882" r="0.4000" /> 
</g>
<g style="fill:#FFFFFF; fill-opacity:1.0000; stroke:none;">
<circle cx="26.2383" cy="28.7882" r="0.4000" /> 
</g>
<g style="fill:#FFFFFF; fill-opacity:1.0000; stroke:none;">
<circle cx="18.6183" cy="46.5682" r="0.4000" /> 
</g>
<g style="fill:#FFFFFF; fill-opacity:1.0000; stroke:none;">
<circle cx="21.1583" cy="46.5682" r="0.4000" /> 
</g>
<g style="fill:#FFFFFF; fill-opacity:1.0000; stroke:none;">
<circle cx="16.0783" cy="51.6082" r="0.4000" /> 
</g>
<g style="fill:#FFFFFF; fill-opacity:1.0000; stroke:none;">
<circle cx="13.5383" cy="51.6082" r="0.4000" /> 
</g>
<g style="fill:#FFFFFF; fill-opacity:1.0000; stroke:none;">
<circle cx="31.3183" cy="46.5682" r="0.4000" /> 
</g>
<g style="fill:#FFFFFF; fill-opacity:1.0000; stroke:none;">
<circle cx="23.6983" cy="46.5682" r="0.4000" /> 
</g>
<g style="fill:#FFFFFF; fill-opacity:1.0000; stroke:none;">
<circle cx="18.6183" cy="38.9483" r="0.4000" /> 
</g>
<g style="fill:#FFFFFF; fill-opacity:1.0000; stroke:none;">
<circle cx="21.1583" cy="38.9483" r="0.4000" /> 
</g>
<g style="fill:#FFFFFF; fill-opacity:1.0000; stroke:none;">
<circle cx="23.6983" cy="38.9483" r="0.4000" /> 
</g>
<g style="fill:#FFFFFF; fill-opacity:1.0000; stroke:none;">
<circle cx="26.2383" cy="38.9483" r="0.4000" /> 
</g>
<g style="fill:#FFFFFF; fill-opacity:1.0000; stroke:none;">
<circle cx="26.2383" cy="31.3282" r="0.4000" /> 
</g>
<g style="fill:#FFFFFF; fill-opacity:1.0000; stroke:none;">
<circle cx="23.6983" cy="31.3282" r="0.4000" /> 
</g>
<g style="fill:#FFFFFF; fill-opacity:1.0000; stroke:none;">
<circle cx="21.1583" cy="31.3282" r="0.4000" /> 
</g>
<g style="fill:#FFFFFF; fill-opacity:1.0000; stroke:none;">
<circle cx="18.6183" cy="31.3282" r="0.4000" /> 
</g>
<g style="fill:#FFFFFF; fill-opacity:1.0000; stroke:none;">
<circle cx="21.1583" cy="51.6082" r="0.4000" /> 
</g>
<g style="fill:#FFFFFF; fill-opacity:1.0000; stroke:none;">
<circle cx="23.6983" cy="51.6082" r="0.4000" /> 
</g>
<g style="fill:#FFFFFF; fill-opacity:1.0000; stroke:none;">
<circle cx="26.2383" cy="51.6082" r="0.4000" /> 
<path style="fill:#C83434; fill-opacity:1.0000; stroke:none;fill-rule:evenodd;"
d="M 20.2058,27.2082
20.2058,25.2082
22.1108,25.2082
22.1108,27.2082
Z" /> 
</g>
<g style="fill:none; 
stroke:#C83434; stroke-width:1.9050; stroke-opacity:1; 
stroke-linecap:round; stroke-linejoin:round;">
<path d="M23.6983 26.1608
L23.6983 26.2557
" />
<path d="M26.2383 26.1608
L26.2383 26.2557
" />
<path style="fill:#C83434; fill-opacity:1.0000; stroke:none;fill-rule:evenodd;"
d="M 11.8483,47.3783
10.1483,47.3783
10.1483,45.6782
11.8483,45.6782
Z" /> 
</g>
<g style="fill:#C83434; fill-opacity:1.0000; stroke:none;">
<circle cx="13.5383" cy="46.5282" r="0.8500" /> 
<circle cx="16.0783" cy="46.5282" r="0.8500" /> 
<circle cx="18.6183" cy="54.1882" r="0.8000" /> 
</g>
<g style="fill:#C83434; fill-opacity:1.0000; stroke:none;">
<circle cx="23.6983" cy="54.1882" r="0.8000" /> 
<path style="fill:#C83434; fill-opacity:1.0000; stroke:none;fill-rule:evenodd;"
d="M 17.6683,10.4082
17.6683,6.4482
19.6483,6.4482
19.6483,10.4082
Z" /> 
</g>
<g style="fill:none; 
stroke:#C83434; stroke-width:1.9800; stroke-opacity:1; 
stroke-linecap:round; stroke-linejoin:round;">
<path d="M23.6583 7.4383
L23.6583 9.4183
" />
</g>
<g style="fill:#C83434; fill-opacity:1.0000; stroke:none;">
<circle cx="26.1583" cy="49.1082" r="0.8000" /> 
</g>
<g style="fill:#C83434; fill-opacity:1.0000; stroke:none;">
<circle cx="21.1583" cy="49.1082" r="0.8000" /> 
<path style="fill:#C83434; fill-opacity:1.0000; stroke:none;fill-rule:evenodd;"
d="M 7.6583,54.9482
7.6583,53.3483
9.2583,53.3483
9.2583,54.9482
Z" /> 
</g>
<g style="fill:#C83434; fill-opacity:1.0000; stroke:none;">
<circle cx="16.0783" cy="54.1482" r="0.8000" /> 
<circle cx="28.7783" cy="44.0282" r="0.8000" /> 
</g>
<g style="fill:#C83434; fill-opacity:1.0000; stroke:none;">
<circle cx="23.6983" cy="44.0282" r="0.8000" /> 
<path style="fill:#C83434; fill-opacity:1.0000; stroke:none;fill-rule:evenodd;"
d="M 17.8183,16.8483
17.8183,15.2482
19.4183,15.2482
19.4183,16.8483
Z" /> 
<circle cx="23.6983" cy="16.0482" r="0.8000" /> 
<circle cx="21.1583" cy="18.5882" r="0.8000" /> 
</g>
<g style="fill:#C83434; fill-opacity:1.0000; stroke:none;">
<circle cx="26.2383" cy="18.5882" r="0.8000" /> 
<circle cx="23.6983" cy="41.4883" r="0.8000" /> 
</g>
<g style="fill:#C83434; fill-opacity:1.0000; stroke:none;">
<circle cx="13.5383" cy="41.4883" r="0.8000" /> 
<path style="fill:#C83434; fill-opacity:1.0000; stroke:none;fill-rule:evenodd;"
d="M 7.5083,10.4082
7.5083,6.4482
9.4883,6.4482
9.4883,10.4082
Z" /> 
</g>
<g style="fill:none; 
stroke:#C83434; stroke-width:1.9800; stroke-opacity:1; 
stroke-linecap:round; stroke-linejoin:round;">
<path d="M13.4983 7.4383
L13.4983 9.4183
" />
</g>
<g style="fill:#C83434; fill-opacity:1.0000; stroke:none;">
<circle cx="18.6183" cy="28.7882" r="0.8000" /> 
</g>
<g style="fill:#C83434; fill-opacity:1.0000; stroke:none;">
<circle cx="26.2383" cy="28.7882" r="0.8000" /> 
<circle cx="18.6183" cy="46.5682" r="0.8000" /> 
</g>
<g style="fill:#C83434; fill-opacity:1.0000; stroke:none;">
<circle cx="21.1583" cy="46.5682" r="0.8000" /> 
<path style="fill:#C83434; fill-opacity:1.0000; stroke:none;fill-rule:evenodd;"
d="M 16.8783,50.8083
16.8783,52.4082
15.2783,52.4082
15.2783,50.8083
Z" /> 
<circle cx="13.5383" cy="51.6082" r="0.8000" /> 
<circle cx="31.3183" cy="46.5682" r="0.8000" /> 
</g>
<g style="fill:#C83434; fill-opacity:1.0000; stroke:none;">
<circle cx="23.6983" cy="46.5682" r="0.8000" /> 
<path style="fill:#C83434; fill-opacity:1.0000; stroke:none;fill-rule:evenodd;"
d="M 19.4183,39.7482
17.8183,39.7482
17.8183,38.1482
19.4183,38.1482
Z" /> 
<circle cx="21.1583" cy="38.9483" r="0.8000" /> 
<circle cx="23.6983" cy="38.9483" r="0.8000" /> 
<circle cx="26.2383" cy="38.9483" r="0.8000" /> 
<circle cx="26.2383" cy="31.3282" r="0.8000" /> 
<circle cx="23.6983" cy="31.3282" r="0.8000" /> 
<circle cx="21.1583" cy="31.3282" r="0.8000" /> 
<circle cx="18.6183" cy="31.3282" r="0.8000" /> 
<path style="fill:#C83434; fill-opacity:1.0000; stroke:none;fill-rule:evenodd;"
d="M 20.4083,52.3582
20.4083,50.8582
21.9083,50.8582
21.9083,52.3582
Z" /> 
<circle cx="23.6983" cy="51.6082" r="0.7500" /> 
</g>
<g style="fill:#C83434; fill-opacity:1.0000; stroke:none;">
<circle cx="26.2383" cy="51.6082" r="0.7500" /> 
</g>
<g style="fill:#ECECEC; fill-opacity:1.0000; stroke:none;">
<circle cx="26.2383" cy="13.5082" r="0.3000" /> 
</g>
<g style="fill:#ECECEC; fill-opacity:1.0000; stroke:none;">
<circle cx="8.4583" cy="13.5082" r="0.3000" /> 
</g>
<g style="fill:#ECECEC; fill-opacity:1.0000; stroke:none;">
<circle cx="28.7783" cy="13.5082" r="0.3000" /> 
</g>
<g style="fill:#ECECEC; fill-opacity:1.0000; stroke:none;">
<circle cx="26.2383" cy="13.5082" r="0.3000" /> 
</g>
<g style="fill:#ECECEC; fill-opacity:1.0000; stroke:none;">
<circle cx="16.0783" cy="33.8282" r="0.3000" /> 
</g>
<g style="fill:#ECECEC; fill-opacity:1.0000; stroke:none;">
<circle cx="26.2383" cy="33.8282" r="0.3000" /> 
</g>
<g style="fill:none; 
stroke:#C83434; stroke-width:1.2700; stroke-opacity:1; 
stroke-linecap:round; stroke-linejoin:round;">
<path d="M8.4583 13.5082
L26.2383 13.5082
" />
</g>
<g style="fill:none; 
stroke:#C83434; stroke-width:0.5080; stroke-opacity:1; 
stroke-linecap:round; stroke-linejoin:round;">
<path d="M28.7783 13.5082
L26.2383 13.5082
" />
<path d="M16.0783 33.8282
L26.2383 33.8282
" />
</g>
<g style="fill:#FFFFFF; fill-opacity:1.0000; stroke:none;">
<circle cx="26.2383" cy="13.5082" r="0.1500" /> 
</g>
<g style="fill:#FFFFFF; fill-opacity:1.0000; stroke:none;">
<circle cx="8.4583" cy="13.5082" r="0.1500" /> 
</g>
<g style="fill:#FFFFFF; fill-opacity:1.0000; stroke:none;">
<circle cx="28.7783" cy="13.5082" r="0.1500" /> 
</g>
<g style="fill:#FFFFFF; fill-opacity:1.0000; stroke:none;">
<circle cx="26.2383" cy="13.5082" r="0.1500" /> 
</g>
<g style="fill:#FFFFFF; fill-opacity:1.0000; stroke:none;">
<circle cx="16.0783" cy="33.8282" r="0.1500" /> 
</g>
<g style="fill:#FFFFFF; fill-opacity:1.0000; stroke:none;">
<circle cx="26.2383" cy="33.8282" r="0.1500" /> 
</g>
<g style="fill:#FFFFFF; fill-opacity:1.0000; stroke:none;">
<circle cx="21.1583" cy="26.2082" r="0.5500" /> 
</g>
<g style="fill:#FFFFFF; fill-opacity:1.0000; stroke:none;">
<circle cx="23.6983" cy="26.2082" r="0.5500" /> 
</g>
<g style="fill:#FFFFFF; fill-opacity:1.0000; stroke:none;">
<circle cx="26.2383" cy="26.2082" r="0.5500" /> 
</g>
<g style="fill:#FFFFFF; fill-opacity:1.0000; stroke:none;">
<circle cx="10.9983" cy="46.5282" r="0.5000" /> 
</g>
<g style="fill:#FFFFFF; fill-opacity:1.0000; stroke:none;">
<circle cx="13.5383" cy="46.5282" r="0.5000" /> 
</g>
<g style="fill:#FFFFFF; fill-opacity:1.0000; stroke:none;">
<circle cx="16.0783" cy="46.5282" r="0.5000" /> 
</g>
<g style="fill:#FFFFFF; fill-opacity:1.0000; stroke:none;">
<circle cx="18.6183" cy="54.1882" r="0.4000" /> 
</g>
<g style="fill:#FFFFFF; fill-opacity:1.0000; stroke:none;">
<circle cx="23.6983" cy="54.1882" r="0.4000" /> 
</g>
<g style="fill:#FFFFFF; fill-opacity:1.0000; stroke:none;">
<circle cx="18.6583" cy="8.4283" r="0.6600" /> 
</g>
<g style="fill:#FFFFFF; fill-opacity:1.0000; stroke:none;">
<circle cx="23.6583" cy="8.4283" r="0.6600" /> 
</g>
<g style="fill:#FFFFFF; fill-opacity:1.0000; stroke:none;">
<circle cx="26.1583" cy="49.1082" r="0.4000" /> 
</g>
<g style="fill:#FFFFFF; fill-opacity:1.0000; stroke:none;">
<circle cx="21.1583" cy="49.1082" r="0.4000" /> 
</g>
<g style="fill:#FFFFFF; fill-opacity:1.0000; stroke:none;">
<circle cx="8.4583" cy="54.1482" r="0.4000" /> 
</g>
<g style="fill:#FFFFFF; fill-opacity:1.0000; stroke:none;">
<circle cx="16.0783" cy="54.1482" r="0.4000" /> 
</g>
<g style="fill:#FFFFFF; fill-opacity:1.0000; stroke:none;">
<circle cx="28.7783" cy="44.0282" r="0.4000" /> 
</g>
<g style="fill:#FFFFFF; fill-opacity:1.0000; stroke:none;">
<circle cx="23.6983" cy="44.0282" r="0.4000" /> 
</g>
<g style="fill:#FFFFFF; fill-opacity:1.0000; stroke:none;">
<circle cx="18.6183" cy="16.0482" r="0.4000" /> 
</g>
<g style="fill:#FFFFFF; fill-opacity:1.0000; stroke:none;">
<circle cx="23.6983" cy="16.0482" r="0.4000" /> 
</g>
<g style="fill:#FFFFFF; fill-opacity:1.0000; stroke:none;">
<circle cx="21.1583" cy="18.5882" r="0.4000" /> 
</g>
<g style="fill:#FFFFFF; fill-opacity:1.0000; stroke:none;">
<circle cx="26.2383" cy="18.5882" r="0.4000" /> 
</g>
<g style="fill:#FFFFFF; fill-opacity:1.0000; stroke:none;">
<circle cx="23.6983" cy="41.4883" r="0.4000" /> 
</g>
<g style="fill:#FFFFFF; fill-opacity:1.0000; stroke:none;">
<circle cx="13.5383" cy="41.4883" r="0.4000" /> 
</g>
<g style="fill:#FFFFFF; fill-opacity:1.0000; stroke:none;">
<circle cx="8.4983" cy="8.4283" r="0.6600" /> 
</g>
<g style="fill:#FFFFFF; fill-opacity:1.0000; stroke:none;">
<circle cx="13.4983" cy="8.4283" r="0.6600" /> 
</g>
<g style="fill:#FFFFFF; fill-opacity:1.0000; stroke:none;">
<circle cx="18.6183" cy="28.7882" r="0.4000" /> 
</g>
<g style="fill:#FFFFFF; fill-opacity:1.0000; stroke:none;">
<circle cx="26.2383" cy="28.7882" r="0.4000" /> 
</g>
<g style="fill:#FFFFFF; fill-opacity:1.0000; stroke:none;">
<circle cx="18.6183" cy="46.5682" r="0.4000" /> 
</g>
<g style="fill:#FFFFFF; fill-opacity:1.0000; stroke:none;">
<circle cx="21.1583" cy="46.5682" r="0.4000" /> 
</g>
<g style="fill:#FFFFFF; fill-opacity:1.0000; stroke:none;">
<circle cx="16.0783" cy="51.6082" r="0.4000" /> 
</g>
<g style="fill:#FFFFFF; fill-opacity:1.0000; stroke:none;">
<circle cx="13.5383" cy="51.6082" r="0.4000" /> 
</g>
<g style="fill:#FFFFFF; fill-opacity:1.0000; stroke:none;">
<circle cx="31.3183" cy="46.5682" r="0.4000" /> 
</g>
<g style="fill:#FFFFFF; fill-opacity:1.0000; stroke:none;">
<circle cx="23.6983" cy="46.5682" r="0.4000" /> 
</g>
<g style="fill:#FFFFFF; fill-opacity:1.0000; stroke:none;">
<circle cx="18.6183" cy="38.9483" r="0.4000" /> 
</g>
<g style="fill:#FFFFFF; fill-opacity:1.0000; stroke:none;">
<circle cx="21.1583" cy="38.9483" r="0.4000" /> 
</g>
<g style="fill:#FFFFFF; fill-opacity:1.0000; stroke:none;">
<circle cx="23.6983" cy="38.9483" r="0.4000" /> 
</g>
<g style="fill:#FFFFFF; fill-opacity:1.0000; stroke:none;">
<circle cx="26.2383" cy="38.9483" r="0.4000" /> 
</g>
<g style="fill:#FFFFFF; fill-opacity:1.0000; stroke:none;">
<circle cx="26.2383" cy="31.3282" r="0.4000" /> 
</g>
<g style="fill:#FFFFFF; fill-opacity:1.0000; stroke:none;">
<circle cx="23.6983" cy="31.3282" r="0.4000" /> 
</g>
<g style="fill:#FFFFFF; fill-opacity:1.0000; stroke:none;">
<circle cx="21.1583" cy="31.3282" r="0.4000" /> 
</g>
<g style="fill:#FFFFFF; fill-opacity:1.0000; stroke:none;">
<circle cx="18.6183" cy="31.3282" r="0.4000" /> 
</g>
<g style="fill:#FFFFFF; fill-opacity:1.0000; stroke:none;">
<circle cx="21.1583" cy="51.6082" r="0.4000" /> 
</g>
<g style="fill:#FFFFFF; fill-opacity:1.0000; stroke:none;">
<circle cx="23.6983" cy="51.6082" r="0.4000" /> 
</g>
<g style="fill:#FFFFFF; fill-opacity:1.0000; stroke:none;">
<circle cx="26.2383" cy="51.6082" r="0.4000" /> 
</g>
<g style="fill:none; 
stroke:#F2EDA1; stroke-width:0.1500; stroke-opacity:1; 
stroke-linecap:round; stroke-linejoin:round;">
<text x="23.6983" y="22.4383"
textLength="2.2500" font-size="1.3333" lengthAdjust="spacingAndGlyphs"
text-anchor="middle" opacity="0">Q1</text>
<g class="stroked-text"><desc>Q1</desc>
<path d="M23.6031 22.4883
L23.5079 22.4407
" />
<path d="M23.5079 22.4407
L23.4126 22.3454
" />
<path d="M23.4126 22.3454
L23.2698 22.2026
" />
<path d="M23.2698 22.2026
L23.1745 22.1550
" />
<path d="M23.1745 22.1550
L23.0793 22.1550
" />
<path d="M23.1269 22.3931
L23.0317 22.3454
" />
<path d="M23.0317 22.3454
L22.9364 22.2502
" />
<path d="M22.9364 22.2502
L22.8888 22.0597
" />
<path d="M22.8888 22.0597
L22.8888 21.7264
" />
<path d="M22.8888 21.7264
L22.9364 21.5359
" />
<path d="M22.9364 21.5359
L23.0317 21.4407
" />
<path d="M23.0317 21.4407
L23.1269 21.3931
" />
<path d="M23.1269 21.3931
L23.3174 21.3931
" />
<path d="M23.3174 21.3931
L23.4126 21.4407
" />
<path d="M23.4126 21.4407
L23.5079 21.5359
" />
<path d="M23.5079 21.5359
L23.5555 21.7264
" />
<path d="M23.5555 21.7264
L23.5555 22.0597
" />
<path d="M23.5555 22.0597
L23.5079 22.2502
" />
<path d="M23.5079 22.2502
L23.4126 22.3454
" />
<path d="M23.4126 22.3454
L23.3174 22.3931
" />
<path d="M23.3174 22.3931
L23.1269 22.3931
" />
<path d="M24.5079 22.3931
L23.9364 22.3931
" />
<path d="M24.2221 22.3931
L24.2221 21.3931
" />
<path d="M24.2221 21.3931
L24.1269 21.5359
" />
<path d="M24.1269 21.5359
L24.0317 21.6312
" />
<path d="M24.0317 21.6312
L23.9364 21.6788
" />
</g><g transform="rotate(-90.000000 8.6683 46.5282)">
<text x="8.6683" y="47.0282"
textLength="3.0595" font-size="1.3333" lengthAdjust="spacingAndGlyphs"
text-anchor="middle" opacity="0">RV1</text>
</g>
<g class="stroked-text"><desc>RV1</desc>
<path d="M9.1232 47.1235
L8.6470 47.4568
" />
<path d="M9.1232 47.6949
L8.1232 47.6949
" />
<path d="M8.1232 47.6949
L8.1232 47.3140
" />
<path d="M8.1232 47.3140
L8.1708 47.2187
" />
<path d="M8.1708 47.2187
L8.2184 47.1711
" />
<path d="M8.2184 47.1711
L8.3136 47.1235
" />
<path d="M8.3136 47.1235
L8.4565 47.1235
" />
<path d="M8.4565 47.1235
L8.5517 47.1711
" />
<path d="M8.5517 47.1711
L8.5993 47.2187
" />
<path d="M8.5993 47.2187
L8.6470 47.3140
" />
<path d="M8.6470 47.3140
L8.6470 47.6949
" />
<path d="M8.1232 46.8378
L9.1232 46.5044
" />
<path d="M9.1232 46.5044
L8.1232 46.1711
" />
<path d="M9.1232 45.3140
L9.1232 45.8854
" />
<path d="M9.1232 45.5997
L8.1232 45.5997
" />
<path d="M8.1232 45.5997
L8.2660 45.6949
" />
<path d="M8.2660 45.6949
L8.3612 45.7902
" />
<path d="M8.3612 45.7902
L8.4089 45.8854
" />
</g><text x="21.1583" y="52.3182"
textLength="2.2024" font-size="1.3333" lengthAdjust="spacingAndGlyphs"
text-anchor="middle" opacity="0">R1</text>
<g class="stroked-text"><desc>R1</desc>
<path d="M20.9917 52.2731
L20.6583 51.7969
" />
<path d="M20.4202 52.2731
L20.4202 51.2731
" />
<path d="M20.4202 51.2731
L20.8012 51.2731
" />
<path d="M20.8012 51.2731
L20.8964 51.3207
" />
<path d="M20.8964 51.3207
L20.9440 51.3683
" />
<path d="M20.9440 51.3683
L20.9917 51.4635
" />
<path d="M20.9917 51.4635
L20.9917 51.6064
" />
<path d="M20.9917 51.6064
L20.9440 51.7016
" />
<path d="M20.9440 51.7016
L20.8964 51.7493
" />
<path d="M20.8964 51.7493
L20.8012 51.7969
" />
<path d="M20.8012 51.7969
L20.4202 51.7969
" />
<path d="M21.9440 52.2731
L21.3726 52.2731
" />
<path d="M21.6583 52.2731
L21.6583 51.2731
" />
<path d="M21.6583 51.2731
L21.5631 51.4159
" />
<path d="M21.5631 51.4159
L21.4679 51.5112
" />
<path d="M21.4679 51.5112
L21.3726 51.5588
" />
</g><text x="16.7383" y="1.9382"
textLength="1.9643" font-size="1.3333" lengthAdjust="spacingAndGlyphs"
text-anchor="middle" opacity="0">J2</text>
<g class="stroked-text"><desc>J2</desc>
<path d="M16.4050 0.8931
L16.4050 1.6074
" />
<path d="M16.4050 1.6074
L16.3574 1.7502
" />
<path d="M16.3574 1.7502
L16.2621 1.8454
" />
<path d="M16.2621 1.8454
L16.1193 1.8931
" />
<path d="M16.1193 1.8931
L16.0240 1.8931
" />
<path d="M16.8336 0.9883
L16.8812 0.9407
" />
<path d="M16.8812 0.9407
L16.9764 0.8931
" />
<path d="M16.9764 0.8931
L17.2145 0.8931
" />
<path d="M17.2145 0.8931
L17.3098 0.9407
" />
<path d="M17.3098 0.9407
L17.3574 0.9883
" />
<path d="M17.3574 0.9883
L17.4050 1.0835
" />
<path d="M17.4050 1.0835
L17.4050 1.1788
" />
<path d="M17.4050 1.1788
L17.3574 1.3216
" />
<path d="M17.3574 1.3216
L16.7860 1.8931
" />
<path d="M16.7860 1.8931
L17.4050 1.8931
" />
</g><text x="23.6583" y="52.4582"
textLength="2.2024" font-size="1.3333" lengthAdjust="spacingAndGlyphs"
text-anchor="middle" opacity="0">C1</text>
<g class="stroked-text"><desc>C1</desc>
<path d="M23.4917 52.3178
L23.4440 52.3654
" />
<path d="M23.4440 52.3654
L23.3012 52.4131
" />
<path d="M23.3012 52.4131
L23.2060 52.4131
" />
<path d="M23.2060 52.4131
L23.0631 52.3654
" />
<path d="M23.0631 52.3654
L22.9679 52.2702
" />
<path d="M22.9679 52.2702
L22.9202 52.1750
" />
<path d="M22.9202 52.1750
L22.8726 51.9845
" />
<path d="M22.8726 51.9845
L22.8726 51.8416
" />
<path d="M22.8726 51.8416
L22.9202 51.6512
" />
<path d="M22.9202 51.6512
L22.9679 51.5559
" />
<path d="M22.9679 51.5559
L23.0631 51.4607
" />
<path d="M23.0631 51.4607
L23.2060 51.4131
" />
<path d="M23.2060 51.4131
L23.3012 51.4131
" />
<path d="M23.3012 51.4131
L23.4440 51.4607
" />
<path d="M23.4440 51.4607
L23.4917 51.5083
" />
<path d="M24.4440 52.4131
L23.8726 52.4131
" />
<path d="M24.1583 52.4131
L24.1583 51.4131
" />
<path d="M24.1583 51.4131
L24.0631 51.5559
" />
<path d="M24.0631 51.5559
L23.9679 51.6512
" />
<path d="M23.9679 51.6512
L23.8726 51.6988
" />
</g><text x="12.2683" y="52.5282"
textLength="2.2024" font-size="1.3333" lengthAdjust="spacingAndGlyphs"
text-anchor="middle" opacity="0">D1</text>
<g class="stroked-text"><desc>D1</desc>
<path d="M11.5302 52.4831
L11.5302 51.4831
" />
<path d="M11.5302 51.4831
L11.7683 51.4831
" />
<path d="M11.7683 51.4831
L11.9112 51.5307
" />
<path d="M11.9112 51.5307
L12.0064 51.6259
" />
<path d="M12.0064 51.6259
L12.0540 51.7212
" />
<path d="M12.0540 51.7212
L12.1017 51.9116
" />
<path d="M12.1017 51.9116
L12.1017 52.0545
" />
<path d="M12.1017 52.0545
L12.0540 52.2450
" />
<path d="M12.0540 52.2450
L12.0064 52.3402
" />
<path d="M12.0064 52.3402
L11.9112 52.4354
" />
<path d="M11.9112 52.4354
L11.7683 52.4831
" />
<path d="M11.7683 52.4831
L11.5302 52.4831
" />
<path d="M13.0540 52.4831
L12.4826 52.4831
" />
<path d="M12.7683 52.4831
L12.7683 51.4831
" />
<path d="M12.7683 51.4831
L12.6731 51.6259
" />
<path d="M12.6731 51.6259
L12.5779 51.7212
" />
<path d="M12.5779 51.7212
L12.4826 51.7688
" />
</g><text x="8.4583" y="52.8483"
textLength="1.2500" font-size="1.3333" lengthAdjust="spacingAndGlyphs"
text-anchor="middle" opacity="0">K</text>
<g class="stroked-text"><desc>K</desc>
<path d="M8.1964 52.8031
L8.1964 51.8031
" />
<path d="M8.7679 52.8031
L8.3393 52.2316
" />
<path d="M8.7679 51.8031
L8.1964 52.3745
" />
</g><text x="26.2383" y="46.8982"
textLength="2.2024" font-size="1.3333" lengthAdjust="spacingAndGlyphs"
text-anchor="middle" opacity="0">R4</text>
<g class="stroked-text"><desc>R4</desc>
<path d="M26.0717 46.8531
L25.7383 46.3769
" />
<path d="M25.5002 46.8531
L25.5002 45.8531
" />
<path d="M25.5002 45.8531
L25.8812 45.8531
" />
<path d="M25.8812 45.8531
L25.9764 45.9007
" />
<path d="M25.9764 45.9007
L26.0240 45.9483
" />
<path d="M26.0240 45.9483
L26.0717 46.0435
" />
<path d="M26.0717 46.0435
L26.0717 46.1864
" />
<path d="M26.0717 46.1864
L26.0240 46.2816
" />
<path d="M26.0240 46.2816
L25.9764 46.3293
" />
<path d="M25.9764 46.3293
L25.8812 46.3769
" />
<path d="M25.8812 46.3769
L25.5002 46.3769
" />
<path d="M26.9288 46.1864
L26.9288 46.8531
" />
<path d="M26.6907 45.8055
L26.4526 46.5197
" />
<path d="M26.4526 46.5197
L27.0717 46.5197
" />
</g><text x="21.1583" y="14.2219"
textLength="2.2024" font-size="1.3333" lengthAdjust="spacingAndGlyphs"
text-anchor="middle" opacity="0">D3</text>
<g class="stroked-text"><desc>D3</desc>
<path d="M20.4202 14.1767
L20.4202 13.1767
" />
<path d="M20.4202 13.1767
L20.6583 13.1767
" />
<path d="M20.6583 13.1767
L20.8012 13.2243
" />
<path d="M20.8012 13.2243
L20.8964 13.3196
" />
<path d="M20.8964 13.3196
L20.9440 13.4148
" />
<path d="M20.9440 13.4148
L20.9917 13.6053
" />
<path d="M20.9917 13.6053
L20.9917 13.7481
" />
<path d="M20.9917 13.7481
L20.9440 13.9386
" />
<path d="M20.9440 13.9386
L20.8964 14.0338
" />
<path d="M20.8964 14.0338
L20.8012 14.1291
" />
<path d="M20.8012 14.1291
L20.6583 14.1767
" />
<path d="M20.6583 14.1767
L20.4202 14.1767
" />
<path d="M21.3250 13.1767
L21.9440 13.1767
" />
<path d="M21.9440 13.1767
L21.6107 13.5576
" />
<path d="M21.6107 13.5576
L21.7536 13.5576
" />
<path d="M21.7536 13.5576
L21.8488 13.6053
" />
<path d="M21.8488 13.6053
L21.8964 13.6529
" />
<path d="M21.8964 13.6529
L21.9440 13.7481
" />
<path d="M21.9440 13.7481
L21.9440 13.9862
" />
<path d="M21.9440 13.9862
L21.8964 14.0815
" />
<path d="M21.8964 14.0815
L21.8488 14.1291
" />
<path d="M21.8488 14.1291
L21.7536 14.1767
" />
<path d="M21.7536 14.1767
L21.4679 14.1767
" />
<path d="M21.4679 14.1767
L21.3726 14.1291
" />
<path d="M21.3726 14.1291
L21.3250 14.0815
" />
</g><text x="20.1183" y="17.3483"
textLength="1.2500" font-size="1.3333" lengthAdjust="spacingAndGlyphs"
text-anchor="middle" opacity="0">K</text>
<g class="stroked-text"><desc>K</desc>
<path d="M19.8564 17.3031
L19.8564 16.3031
" />
<path d="M20.4279 17.3031
L19.9993 16.7316
" />
<path d="M20.4279 16.3031
L19.8564 16.8745
" />
</g><text x="23.6983" y="16.7182"
textLength="2.2024" font-size="1.3333" lengthAdjust="spacingAndGlyphs"
text-anchor="middle" opacity="0">R2</text>
<g class="stroked-text"><desc>R2</desc>
<path d="M23.5317 16.6731
L23.1983 16.1969
" />
<path d="M22.9602 16.6731
L22.9602 15.6731
" />
<path d="M22.9602 15.6731
L23.3412 15.6731
" />
<path d="M23.3412 15.6731
L23.4364 15.7207
" />
<path d="M23.4364 15.7207
L23.4840 15.7683
" />
<path d="M23.4840 15.7683
L23.5317 15.8635
" />
<path d="M23.5317 15.8635
L23.5317 16.0064
" />
<path d="M23.5317 16.0064
L23.4840 16.1016
" />
<path d="M23.4840 16.1016
L23.4364 16.1493
" />
<path d="M23.4364 16.1493
L23.3412 16.1969
" />
<path d="M23.3412 16.1969
L22.9602 16.1969
" />
<path d="M23.9126 15.7683
L23.9602 15.7207
" />
<path d="M23.9602 15.7207
L24.0555 15.6731
" />
<path d="M24.0555 15.6731
L24.2936 15.6731
" />
<path d="M24.2936 15.6731
L24.3888 15.7207
" />
<path d="M24.3888 15.7207
L24.4364 15.7683
" />
<path d="M24.4364 15.7683
L24.4840 15.8635
" />
<path d="M24.4840 15.8635
L24.4840 15.9588
" />
<path d="M24.4840 15.9588
L24.4364 16.1016
" />
<path d="M24.4364 16.1016
L23.8650 16.6731
" />
<path d="M23.8650 16.6731
L24.4840 16.6731
" />
</g><text x="18.6183" y="44.3582"
textLength="2.2024" font-size="1.3333" lengthAdjust="spacingAndGlyphs"
text-anchor="middle" opacity="0">R5</text>
<g class="stroked-text"><desc>R5</desc>
<path d="M18.4517 44.3131
L18.1183 43.8369
" />
<path d="M17.8802 44.3131
L17.8802 43.3131
" />
<path d="M17.8802 43.3131
L18.2612 43.3131
" />
<path d="M18.2612 43.3131
L18.3564 43.3607
" />
<path d="M18.3564 43.3607
L18.4040 43.4083
" />
<path d="M18.4040 43.4083
L18.4517 43.5035
" />
<path d="M18.4517 43.5035
L18.4517 43.6464
" />
<path d="M18.4517 43.6464
L18.4040 43.7416
" />
<path d="M18.4040 43.7416
L18.3564 43.7893
" />
<path d="M18.3564 43.7893
L18.2612 43.8369
" />
<path d="M18.2612 43.8369
L17.8802 43.8369
" />
<path d="M19.3564 43.3131
L18.8802 43.3131
" />
<path d="M18.8802 43.3131
L18.8326 43.7893
" />
<path d="M18.8326 43.7893
L18.8802 43.7416
" />
<path d="M18.8802 43.7416
L18.9755 43.6940
" />
<path d="M18.9755 43.6940
L19.2136 43.6940
" />
<path d="M19.2136 43.6940
L19.3088 43.7416
" />
<path d="M19.3088 43.7416
L19.3564 43.7893
" />
<path d="M19.3564 43.7893
L19.4040 43.8845
" />
<path d="M19.4040 43.8845
L19.4040 44.1226
" />
<path d="M19.4040 44.1226
L19.3564 44.2178
" />
<path d="M19.3564 44.2178
L19.3088 44.2655
" />
<path d="M19.3088 44.2655
L19.2136 44.3131
" />
<path d="M19.2136 44.3131
L18.9755 44.3131
" />
<path d="M18.9755 44.3131
L18.8802 44.2655
" />
<path d="M18.8802 44.2655
L18.8326 44.2178
" />
</g><text x="6.5783" y="1.9382"
textLength="1.9643" font-size="1.3333" lengthAdjust="spacingAndGlyphs"
text-anchor="middle" opacity="0">J1</text>
<g class="stroked-text"><desc>J1</desc>
<path d="M6.2450 0.8931
L6.2450 1.6074
" />
<path d="M6.2450 1.6074
L6.1974 1.7502
" />
<path d="M6.1974 1.7502
L6.1021 1.8454
" />
<path d="M6.1021 1.8454
L5.9593 1.8931
" />
<path d="M5.9593 1.8931
L5.8640 1.8931
" />
<path d="M7.2450 1.8931
L6.6736 1.8931
" />
<path d="M6.9593 1.8931
L6.9593 0.8931
" />
<path d="M6.9593 0.8931
L6.8640 1.0359
" />
<path d="M6.8640 1.0359
L6.7688 1.1312
" />
<path d="M6.7688 1.1312
L6.6736 1.1788
" />
</g><text x="22.4283" y="26.9183"
textLength="2.2024" font-size="1.3333" lengthAdjust="spacingAndGlyphs"
text-anchor="middle" opacity="0">R3</text>
<g class="stroked-text"><desc>R3</desc>
<path d="M22.2617 26.8731
L21.9283 26.3969
" />
<path d="M21.6902 26.8731
L21.6902 25.8731
" />
<path d="M21.6902 25.8731
L22.0712 25.8731
" />
<path d="M22.0712 25.8731
L22.1664 25.9207
" />
<path d="M22.1664 25.9207
L22.2140 25.9683
" />
<path d="M22.2140 25.9683
L22.2617 26.0635
" />
<path d="M22.2617 26.0635
L22.2617 26.2064
" />
<path d="M22.2617 26.2064
L22.2140 26.3016
" />
<path d="M22.2140 26.3016
L22.1664 26.3493
" />
<path d="M22.1664 26.3493
L22.0712 26.3969
" />
<path d="M22.0712 26.3969
L21.6902 26.3969
" />
<path d="M22.5950 25.8731
L23.2140 25.8731
" />
<path d="M23.2140 25.8731
L22.8807 26.2540
" />
<path d="M22.8807 26.2540
L23.0236 26.2540
" />
<path d="M23.0236 26.2540
L23.1188 26.3016
" />
<path d="M23.1188 26.3016
L23.1664 26.3493
" />
<path d="M23.1664 26.3493
L23.2140 26.4445
" />
<path d="M23.2140 26.4445
L23.2140 26.6826
" />
<path d="M23.2140 26.6826
L23.1664 26.7778
" />
<path d="M23.1664 26.7778
L23.1188 26.8255
" />
<path d="M23.1188 26.8255
L23.0236 26.8731
" />
<path d="M23.0236 26.8731
L22.7379 26.8731
" />
<path d="M22.7379 26.8731
L22.6426 26.8255
" />
<path d="M22.6426 26.8255
L22.5950 26.7778
" />
</g><text x="19.8883" y="44.6982"
textLength="2.2024" font-size="1.3333" lengthAdjust="spacingAndGlyphs"
text-anchor="middle" opacity="0">R7</text>
<g class="stroked-text"><desc>R7</desc>
<path d="M19.7217 44.6531
L19.3883 44.1769
" />
<path d="M19.1502 44.6531
L19.1502 43.6531
" />
<path d="M19.1502 43.6531
L19.5312 43.6531
" />
<path d="M19.5312 43.6531
L19.6264 43.7007
" />
<path d="M19.6264 43.7007
L19.6740 43.7483
" />
<path d="M19.6740 43.7483
L19.7217 43.8435
" />
<path d="M19.7217 43.8435
L19.7217 43.9864
" />
<path d="M19.7217 43.9864
L19.6740 44.0816
" />
<path d="M19.6740 44.0816
L19.6264 44.1293
" />
<path d="M19.6264 44.1293
L19.5312 44.1769
" />
<path d="M19.5312 44.1769
L19.1502 44.1769
" />
<path d="M20.0550 43.6531
L20.7217 43.6531
" />
<path d="M20.7217 43.6531
L20.2931 44.6531
" />
</g><text x="14.8083" y="54.4346"
textLength="2.2024" font-size="1.3333" lengthAdjust="spacingAndGlyphs"
text-anchor="middle" opacity="0">D2</text>
<g class="stroked-text"><desc>D2</desc>
<path d="M14.0702 54.3894
L14.0702 53.3894
" />
<path d="M14.0702 53.3894
L14.3083 53.3894
" />
<path d="M14.3083 53.3894
L14.4512 53.4371
" />
<path d="M14.4512 53.4371
L14.5464 53.5323
" />
<path d="M14.5464 53.5323
L14.5940 53.6275
" />
<path d="M14.5940 53.6275
L14.6417 53.8180
" />
<path d="M14.6417 53.8180
L14.6417 53.9609
" />
<path d="M14.6417 53.9609
L14.5940 54.1513
" />
<path d="M14.5940 54.1513
L14.5464 54.2466
" />
<path d="M14.5464 54.2466
L14.4512 54.3418
" />
<path d="M14.4512 54.3418
L14.3083 54.3894
" />
<path d="M14.3083 54.3894
L14.0702 54.3894
" />
<path d="M15.0226 53.4847
L15.0702 53.4371
" />
<path d="M15.0702 53.4371
L15.1655 53.3894
" />
<path d="M15.1655 53.3894
L15.4036 53.3894
" />
<path d="M15.4036 53.3894
L15.4988 53.4371
" />
<path d="M15.4988 53.4371
L15.5464 53.4847
" />
<path d="M15.5464 53.4847
L15.5940 53.5799
" />
<path d="M15.5940 53.5799
L15.5940 53.6752
" />
<path d="M15.5940 53.6752
L15.5464 53.8180
" />
<path d="M15.5464 53.8180
L14.9750 54.3894
" />
<path d="M14.9750 54.3894
L15.5940 54.3894
" />
</g><text x="17.8783" y="52.1082"
textLength="1.2500" font-size="1.3333" lengthAdjust="spacingAndGlyphs"
text-anchor="middle" opacity="0">K</text>
<g class="stroked-text"><desc>K</desc>
<path d="M17.6164 52.0631
L17.6164 51.0631
" />
<path d="M18.1879 52.0631
L17.7593 51.4916
" />
<path d="M18.1879 51.0631
L17.6164 51.6345
" />
</g><text x="27.5083" y="49.4382"
textLength="2.2024" font-size="1.3333" lengthAdjust="spacingAndGlyphs"
text-anchor="middle" opacity="0">R6</text>
<g class="stroked-text"><desc>R6</desc>
<path d="M27.3417 49.3931
L27.0083 48.9169
" />
<path d="M26.7702 49.3931
L26.7702 48.3931
" />
<path d="M26.7702 48.3931
L27.1512 48.3931
" />
<path d="M27.1512 48.3931
L27.2464 48.4407
" />
<path d="M27.2464 48.4407
L27.2940 48.4883
" />
<path d="M27.2940 48.4883
L27.3417 48.5835
" />
<path d="M27.3417 48.5835
L27.3417 48.7264
" />
<path d="M27.3417 48.7264
L27.2940 48.8216
" />
<path d="M27.2940 48.8216
L27.2464 48.8693
" />
<path d="M27.2464 48.8693
L27.1512 48.9169
" />
<path d="M27.1512 48.9169
L26.7702 48.9169
" />
<path d="M28.1988 48.3931
L28.0083 48.3931
" />
<path d="M28.0083 48.3931
L27.9131 48.4407
" />
<path d="M27.9131 48.4407
L27.8655 48.4883
" />
<path d="M27.8655 48.4883
L27.7702 48.6312
" />
<path d="M27.7702 48.6312
L27.7226 48.8216
" />
<path d="M27.7226 48.8216
L27.7226 49.2026
" />
<path d="M27.7226 49.2026
L27.7702 49.2978
" />
<path d="M27.7702 49.2978
L27.8179 49.3454
" />
<path d="M27.8179 49.3454
L27.9131 49.3931
" />
<path d="M27.9131 49.3931
L28.1036 49.3931
" />
<path d="M28.1036 49.3931
L28.1988 49.3454
" />
<path d="M28.1988 49.3454
L28.2464 49.2978
" />
<path d="M28.2464 49.2978
L28.2940 49.2026
" />
<path d="M28.2940 49.2026
L28.2940 48.9645
" />
<path d="M28.2940 48.9645
L28.2464 48.8693
" />
<path d="M28.2464 48.8693
L28.1988 48.8216
" />
<path d="M28.1988 48.8216
L28.1036 48.7740
" />
<path d="M28.1036 48.7740
L27.9131 48.7740
" />
<path d="M27.9131 48.7740
L27.8179 48.8216
" />
<path d="M27.8179 48.8216
L27.7702 48.8693
" />
<path d="M27.7702 48.8693
L27.7226 48.9645
" />
</g><g transform="rotate(-90.000000 16.2883 35.1382)">
<text x="16.2883" y="35.6382"
textLength="2.2500" font-size="1.3333" lengthAdjust="spacingAndGlyphs"
text-anchor="middle" opacity="0">U1</text>
</g>
<g class="stroked-text"><desc>U1</desc>
<path d="M15.7432 35.9002
L16.5527 35.9002
" />
<path d="M16.5527 35.9002
L16.6479 35.8525
" />
<path d="M16.6479 35.8525
L16.6955 35.8049
" />
<path d="M16.6955 35.8049
L16.7432 35.7097
" />
<path d="M16.7432 35.7097
L16.7432 35.5192
" />
<path d="M16.7432 35.5192
L16.6955 35.4240
" />
<path d="M16.6955 35.4240
L16.6479 35.3763
" />
<path d="M16.6479 35.3763
L16.5527 35.3287
" />
<path d="M16.5527 35.3287
L15.7432 35.3287
" />
<path d="M16.7432 34.3287
L16.7432 34.9002
" />
<path d="M16.7432 34.6144
L15.7432 34.6144
" />
<path d="M15.7432 34.6144
L15.8860 34.7097
" />
<path d="M15.8860 34.7097
L15.9812 34.8049
" />
<path d="M15.9812 34.8049
L16.0289 34.9002
" />
</g><text x="23.6983" y="48.5482"
textLength="2.2500" font-size="1.3333" lengthAdjust="spacingAndGlyphs"
text-anchor="middle" opacity="0">Q3</text>
<g class="stroked-text"><desc>Q3</desc>
<path d="M23.6031 48.5983
L23.5079 48.5507
" />
<path d="M23.5079 48.5507
L23.4126 48.4554
" />
<path d="M23.4126 48.4554
L23.2698 48.3126
" />
<path d="M23.2698 48.3126
L23.1745 48.2650
" />
<path d="M23.1745 48.2650
L23.0793 48.2650
" />
<path d="M23.1269 48.5031
L23.0317 48.4554
" />
<path d="M23.0317 48.4554
L22.9364 48.3602
" />
<path d="M22.9364 48.3602
L22.8888 48.1697
" />
<path d="M22.8888 48.1697
L22.8888 47.8364
" />
<path d="M22.8888 47.8364
L22.9364 47.6459
" />
<path d="M22.9364 47.6459
L23.0317 47.5507
" />
<path d="M23.0317 47.5507
L23.1269 47.5031
" />
<path d="M23.1269 47.5031
L23.3174 47.5031
" />
<path d="M23.3174 47.5031
L23.4126 47.5507
" />
<path d="M23.4126 47.5507
L23.5079 47.6459
" />
<path d="M23.5079 47.6459
L23.5555 47.8364
" />
<path d="M23.5555 47.8364
L23.5555 48.1697
" />
<path d="M23.5555 48.1697
L23.5079 48.3602
" />
<path d="M23.5079 48.3602
L23.4126 48.4554
" />
<path d="M23.4126 48.4554
L23.3174 48.5031
" />
<path d="M23.3174 48.5031
L23.1269 48.5031
" />
<path d="M23.8888 47.5031
L24.5079 47.5031
" />
<path d="M24.5079 47.5031
L24.1745 47.8840
" />
<path d="M24.1745 47.8840
L24.3174 47.8840
" />
<path d="M24.3174 47.8840
L24.4126 47.9316
" />
<path d="M24.4126 47.9316
L24.4602 47.9793
" />
<path d="M24.4602 47.9793
L24.5079 48.0745
" />
<path d="M24.5079 48.0745
L24.5079 48.3126
" />
<path d="M24.5079 48.3126
L24.4602 48.4078
" />
<path d="M24.4602 48.4078
L24.4126 48.4554
" />
<path d="M24.4126 48.4554
L24.3174 48.5031
" />
<path d="M24.3174 48.5031
L24.0317 48.5031
" />
<path d="M24.0317 48.5031
L23.9364 48.4554
" />
<path d="M23.9364 48.4554
L23.8888 48.4078
" />
</g></g>
<g style="fill:none; 
stroke:#F2EDA1; stroke-width:0.1200; stroke-opacity:1; 
stroke-linecap:round; stroke-linejoin:round;">
<path d="M18.5783 22.9383
L18.5783 27.5792
" />
<path d="M18.5783 22.9383
L28.8183 22.9383
" />
<path d="M18.5783 24.4482
L28.8183 24.4482
" />
<path d="M18.5783 27.5792
L28.8183 27.5792
" />
<path d="M21.8483 22.9383
L21.8483 24.4482
" />
<path d="M25.5493 22.9383
L25.5493 24.4482
" />
<path d="M28.8183 22.9383
L28.8183 27.5792
" />
<path d="M9.6683 47.8582
L9.6683 46.5282
" />
<path d="M10.9983 47.8582
L9.6683 47.8582
" />
<path d="M12.2683 45.1982
L17.4083 45.1982
" />
<path d="M12.2683 47.8582
L12.2683 45.1982
" />
<path d="M12.2683 47.8582
L17.4083 47.8582
" />
<path d="M17.4083 47.8582
L17.4083 45.1982
" />
<path d="M19.9883 54.1882
L22.5983 54.1882
" />
<circle cx="18.6183" cy="54.1882" r="1.3700" /> 
<path d="M16.0083 2.1282
L16.0083 14.7282
" />
<path d="M16.0083 14.7282
L26.3583 14.7282
" />
<path d="M26.3583 6.9282
L26.8583 7.2283
" />
<path d="M26.3583 12.3282
L26.3583 6.9282
" />
<path d="M26.3583 13.7782
L26.8583 14.0282
" />
<path d="M26.3583 14.7282
L26.3583 13.7782
" />
<path d="M26.8583 2.1282
L16.0083 2.1282
" />
<path d="M26.8583 7.2283
L26.8583 2.1282
" />
<path d="M26.8583 12.0782
L26.3583 12.3282
" />
<path d="M26.8583 12.1282
L26.8583 12.0782
" />
<path d="M26.8583 14.0282
L26.8583 12.1282
" />
<path d="M20.9883 48.0532
L20.9883 47.3872
" />
<path d="M20.9883 50.8292
L20.9883 50.1632
" />
<path d="M26.3283 47.3872
L20.9883 47.3872
" />
<path d="M26.3283 48.0532
L26.3283 47.3872
" />
<path d="M26.3283 50.8292
L20.9883 50.8292
" />
<path d="M26.3283 50.8292
L26.3283 50.1632
" />
<path d="M9.4983 54.1482
L10.1483 54.1482
" />
<path d="M10.1483 53.0282
L10.1483 55.2682
" />
<path d="M10.1483 55.2682
L14.3883 55.2682
" />
<path d="M10.7483 53.0282
L10.7483 55.2682
" />
<path d="M10.8683 53.0282
L10.8683 55.2682
" />
<path d="M10.9883 53.0282
L10.9883 55.2682
" />
<path d="M14.3883 53.0282
L10.1483 53.0282
" />
<path d="M14.3883 55.2682
L14.3883 53.0282
" />
<path d="M15.0383 54.1482
L14.3883 54.1482
" />
<path d="M27.4083 44.0282
L24.7983 44.0282
" />
<circle cx="28.7783" cy="44.0282" r="1.3700" /> 
<path d="M22.3720 16.0482
L19.7183 16.0482
" />
<circle cx="23.6983" cy="16.0482" r="1.3264" /> 
<path d="M22.5283 18.5882
L25.1383 18.5882
" />
<circle cx="21.1583" cy="18.5882" r="1.3700" /> 
<path d="M14.5783 41.4883
L15.3483 41.4883
" />
<path d="M15.3483 40.1182
L15.3483 42.8582
" />
<path d="M15.3483 42.8582
L21.8883 42.8582
" />
<path d="M21.8883 40.1182
L15.3483 40.1182
" />
<path d="M21.8883 42.8582
L21.8883 40.1182
" />
<path d="M22.6583 41.4883
L21.8883 41.4883
" />
<path d="M5.8483 2.1282
L5.8483 14.7282
" />
<path d="M5.8483 14.7282
L16.1983 14.7282
" />
<path d="M16.1983 6.9282
L16.6983 7.2283
" />
<path d="M16.1983 12.3282
L16.1983 6.9282
" />
<path d="M16.1983 13.7782
L16.6983 14.0282
" />
<path d="M16.1983 14.7282
L16.1983 13.7782
" />
<path d="M16.6983 2.1282
L5.8483 2.1282
" />
<path d="M16.6983 7.2283
L16.6983 2.1282
" />
<path d="M16.6983 12.0782
L16.1983 12.3282
" />
<path d="M16.6983 12.1282
L16.6983 12.0782
" />
<path d="M16.6983 14.0282
L16.6983 12.1282
" />
<path d="M19.1583 27.4183
L25.6983 27.4183
" />
<path d="M19.1583 27.7482
L19.1583 27.4183
" />
<path d="M19.1583 29.8282
L19.1583 30.1582
" />
<path d="M19.1583 30.1582
L25.6983 30.1582
" />
<path d="M25.6983 27.4183
L25.6983 27.7482
" />
<path d="M25.6983 30.1582
L25.6983 29.8282
" />
<path d="M19.9883 46.5682
L20.0583 46.5682
" />
<circle cx="18.6183" cy="46.5682" r="1.3700" /> 
<path d="M14.8647 51.6082
L14.9783 51.6082
" />
<circle cx="13.5383" cy="51.6082" r="1.3264" /> 
<path d="M24.2383 45.1982
L24.2383 45.5282
" />
<path d="M24.2383 47.9382
L24.2383 47.6082
" />
<path d="M30.7783 45.1982
L24.2383 45.1982
" />
<path d="M30.7783 45.5282
L30.7783 45.1982
" />
<path d="M30.7783 47.6082
L30.7783 47.9382
" />
<path d="M30.7783 47.9382
L24.2383 47.9382
" />
<path d="M17.2883 32.4883
L17.2883 34.1382
" />
<path d="M17.2883 36.1382
L17.2883 37.7882
" />
<path d="M17.2883 37.7882
L27.5683 37.7882
" />
<path d="M27.5683 32.4883
L17.2883 32.4883
" />
<path d="M27.5683 37.7882
L27.5683 32.4883
" />
<path d="M17.2883 36.1382 A1.0000 1.0000 0.0 0 0 17.2883 34.1382" />
<path d="M21.8983 53.4582
L25.4983 53.4582
" />
<path d="M23.6983 49.0083 A2.6000 2.6000 0.0 0 0 21.3419 50.5094" />
<path d="M21.3741 52.7310 A2.5812 2.5812 0.0 0 0 21.8983 53.4582" />
<path d="M26.0547 50.5094 A2.6000 2.6000 0.0 0 0 23.6983 49.0082" />
<path d="M25.4983 53.4582 A2.5812 2.5812 0.0 0 0 26.0225 52.7310" />
</g>
<g style="fill:#FFFFFF; fill-opacity:1.0000; stroke:none;">
<circle cx="21.1583" cy="26.2082" r="0.5500" /> 
</g>
<g style="fill:#FFFFFF; fill-opacity:1.0000; stroke:none;">
<circle cx="23.6983" cy="26.2082" r="0.5500" /> 
</g>
<g style="fill:#FFFFFF; fill-opacity:1.0000; stroke:none;">
<circle cx="26.2383" cy="26.2082" r="0.5500" /> 
</g>
<g style="fill:#FFFFFF; fill-opacity:1.0000; stroke:none;">
<circle cx="10.9983" cy="46.5282" r="0.5000" /> 
</g>
<g style="fill:#FFFFFF; fill-opacity:1.0000; stroke:none;">
<circle cx="13.5383" cy="46.5282" r="0.5000" /> 
</g>
<g style="fill:#FFFFFF; fill-opacity:1.0000; stroke:none;">
<circle cx="16.0783" cy="46.5282" r="0.5000" /> 
</g>
<g style="fill:#FFFFFF; fill-opacity:1.0000; stroke:none;">
<circle cx="18.6183" cy="54.1882" r="0.4000" /> 
</g>
<g style="fill:#FFFFFF; fill-opacity:1.0000; stroke:none;">
<circle cx="23.6983" cy="54.1882" r="0.4000" /> 
</g>
<g style="fill:#FFFFFF; fill-opacity:1.0000; stroke:none;">
<circle cx="18.6583" cy="8.4283" r="0.6600" /> 
</g>
<g style="fill:#FFFFFF; fill-opacity:1.0000; stroke:none;">
<circle cx="23.6583" cy="8.4283" r="0.6600" /> 
</g>
<g style="fill:#FFFFFF; fill-opacity:1.0000; stroke:none;">
<circle cx="26.1583" cy="49.1082" r="0.4000" /> 
</g>
<g style="fill:#FFFFFF; fill-opacity:1.0000; stroke:none;">
<circle cx="21.1583" cy="49.1082" r="0.4000" /> 
</g>
<g style="fill:#FFFFFF; fill-opacity:1.0000; stroke:none;">
<circle cx="8.4583" cy="54.1482" r="0.4000" /> 
</g>
<g style="fill:#FFFFFF; fill-opacity:1.0000; stroke:none;">
<circle cx="16.0783" cy="54.1482" r="0.4000" /> 
</g>
<g style="fill:#FFFFFF; fill-opacity:1.0000; stroke:none;">
<circle cx="28.7783" cy="44.0282" r="0.4000" /> 
</g>
<g style="fill:#FFFFFF; fill-opacity:1.0000; stroke:none;">
<circle cx="23.6983" cy="44.0282" r="0.4000" /> 
</g>
<g style="fill:#FFFFFF; fill-opacity:1.0000; stroke:none;">
<circle cx="18.6183" cy="16.0482" r="0.4000" /> 
</g>
<g style="fill:#FFFFFF; fill-opacity:1.0000; stroke:none;">
<circle cx="23.6983" cy="16.0482" r="0.4000" /> 
</g>
<g style="fill:#FFFFFF; fill-opacity:1.0000; stroke:none;">
<circle cx="21.1583" cy="18.5882" r="0.4000" /> 
</g>
<g style="fill:#FFFFFF; fill-opacity:1.0000; stroke:none;">
<circle cx="26.2383" cy="18.5882" r="0.4000" /> 
</g>
<g style="fill:#FFFFFF; fill-opacity:1.0000; stroke:none;">
<circle cx="23.6983" cy="41.4883" r="0.4000" /> 
</g>
<g style="fill:#FFFFFF; fill-opacity:1.0000; stroke:none;">
<circle cx="13.5383" cy="41.4883" r="0.4000" /> 
</g>
<g style="fill:#FFFFFF; fill-opacity:1.0000; stroke:none;">
<circle cx="8.4983" cy="8.4283" r="0.6600" /> 
</g>
<g style="fill:#FFFFFF; fill-opacity:1.0000; stroke:none;">
<circle cx="13.4983" cy="8.4283" r="0.6600" /> 
</g>
<g style="fill:#FFFFFF; fill-opacity:1.0000; stroke:none;">
<circle cx="18.6183" cy="28.7882" r="0.4000" /> 
</g>
<g style="fill:#FFFFFF; fill-opacity:1.0000; stroke:none;">
<circle cx="26.2383" cy="28.7882" r="0.4000" /> 
</g>
<g style="fill:#FFFFFF; fill-opacity:1.0000; stroke:none;">
<circle cx="18.6183" cy="46.5682" r="0.4000" /> 
</g>
<g style="fill:#FFFFFF; fill-opacity:1.0000; stroke:none;">
<circle cx="21.1583" cy="46.5682" r="0.4000" /> 
</g>
<g style="fill:#FFFFFF; fill-opacity:1.0000; stroke:none;">
<circle cx="16.0783" cy="51.6082" r="0.4000" /> 
</g>
<g style="fill:#FFFFFF; fill-opacity:1.0000; stroke:none;">
<circle cx="13.5383" cy="51.6082" r="0.4000" /> 
</g>
<g style="fill:#FFFFFF; fill-opacity:1.0000; stroke:none;">
<circle cx="31.3183" cy="46.5682" r="0.4000" /> 
</g>
<g style="fill:#FFFFFF; fill-opacity:1.0000; stroke:none;">
<circle cx="23.6983" cy="46.5682" r="0.4000" /> 
</g>
<g style="fill:#FFFFFF; fill-opacity:1.0000; stroke:none;">
<circle cx="18.6183" cy="38.9483" r="0.4000" /> 
</g>
<g style="fill:#FFFFFF; fill-opacity:1.0000; stroke:none;">
<circle cx="21.1583" cy="38.9483" r="0.4000" /> 
</g>
<g style="fill:#FFFFFF; fill-opacity:1.0000; stroke:none;">
<circle cx="23.6983" cy="38.9483" r="0.4000" /> 
</g>
<g style="fill:#FFFFFF; fill-opacity:1.0000; stroke:none;">
<circle cx="26.2383" cy="38.9483" r="0.4000" /> 
</g>
<g style="fill:#FFFFFF; fill-opacity:1.0000; stroke:none;">
<circle cx="26.2383" cy="31.3282" r="0.4000" /> 
</g>
<g style="fill:#FFFFFF; fill-opacity:1.0000; stroke:none;">
<circle cx="23.6983" cy="31.3282" r="0.4000" /> 
</g>
<g style="fill:#FFFFFF; fill-opacity:1.0000; stroke:none;">
<circle cx="21.1583" cy="31.3282" r="0.4000" /> 
</g>
<g style="fill:#FFFFFF; fill-opacity:1.0000; stroke:none;">
<circle cx="18.6183" cy="31.3282" r="0.4000" /> 
</g>
<g style="fill:#FFFFFF; fill-opacity:1.0000; stroke:none;">
<circle cx="21.1583" cy="51.6082" r="0.4000" /> 
</g>
<g style="fill:#FFFFFF; fill-opacity:1.0000; stroke:none;">
<circle cx="23.6983" cy="51.6082" r="0.4000" /> 
</g>
<g style="fill:#FFFFFF; fill-opacity:1.0000; stroke:none;">
<circle cx="26.2383" cy="51.6082" r="0.4000" /> 
</g>
<g style="fill:none; 
stroke:#C2C2C2; stroke-width:0.1000; stroke-opacity:1; 
stroke-linecap:round; stroke-linejoin:round;">
<path d="M31.3183 23.6683
L38.9383 16.0482
" />
<path d="M31.3183 28.7482
L41.4783 18.5882
" />
<path d="M38.9383 28.7482
L41.4783 26.2082
" />
<path d="M26.2383 23.6683
L28.7783 21.1282
" />
<path d="M33.8583 28.7482
L41.4783 21.1282
" />
<path d="M28.7783 23.6683
L31.3183 21.1282
" />
<path d="M36.3983 28.7482
L41.4783 23.6683
" />
<path d="M16.0783 23.6683
L16.0783 28.7482
" />
<path d="M16.0783 21.1282
L31.3183 21.1282
" />
<path d="M16.0783 16.0482
L16.0783 21.1282
" />
<path d="M31.3183 23.6683
L31.3183 28.7482
" />
<path d="M16.0783 23.6683
L31.3183 23.6683
" />
<path style="fill:none; 
stroke:#C2C2C2; stroke-width:0.1000; stroke-opacity:1; 
stroke-linecap:round; stroke-linejoin:round;fill:none"
d="M 5.9183,16.0482
41.4783,16.0482
41.4783,28.7482
5.9183,28.7482
Z" /> 
<path d="M31.3183 21.1282
L31.3183 16.0482
" />
<path d="M5.9183 26.2082
L16.0783 16.0482
" />
<path d="M8.4583 28.7482
L16.0783 21.1282
" />
<path d="M23.6983 23.6683
L26.2383 21.1282
" />
<path d="M13.5383 28.7482
L16.0783 26.2082
" />
<path d="M18.6183 23.6683
L21.1583 21.1282
" />
<path d="M5.9183 23.6683
L13.5383 16.0482
" />
<path d="M31.3183 21.1282
L36.3983 16.0482
" />
<path d="M5.9183 28.7482
L16.0783 18.5882
" />
<path d="M21.1583 23.6683
L23.6983 21.1282
" />
<path d="M5.9183 21.1282
L10.9983 16.0482
" />
<path d="M5.9183 18.5882
L8.4583 16.0482
" />
<path d="M10.9983 28.7482
L18.6183 21.1282
" />
<path d="M31.3183 26.2082
L41.4783 16.0482
" />
</g>
<g style="fill:none; 
stroke:#5994DC; stroke-width:0.1500; stroke-opacity:1; 
stroke-linecap:round; stroke-linejoin:round;">
<text x="28.7783" y="41.4483"
textLength="18.2024" font-size="1.3333" lengthAdjust="spacingAndGlyphs"
text-anchor="start" opacity="0">&lt;--- Copper Removal</text>
<g class="stroked-text"><desc>&lt;--- Copper Removal</desc>
<path d="M29.8770 40.6514
L29.1151 40.9371
" />
<path d="M29.1151 40.9371
L29.8770 41.2228
" />
<path d="M30.3532 40.9371
L31.1151 40.9371
" />
<path d="M31.5913 40.9371
L32.3532 40.9371
" />
<path d="M32.8294 40.9371
L33.5913 40.9371
" />
<path d="M35.4008 41.2228
L35.3532 41.2704
" />
<path d="M35.3532 41.2704
L35.2103 41.3181
" />
<path d="M35.2103 41.3181
L35.1151 41.3181
" />
<path d="M35.1151 41.3181
L34.9723 41.2704
" />
<path d="M34.9723 41.2704
L34.8770 41.1752
" />
<path d="M34.8770 41.1752
L34.8294 41.0800
" />
<path d="M34.8294 41.0800
L34.7818 40.8895
" />
<path d="M34.7818 40.8895
L34.7818 40.7466
" />
<path d="M34.7818 40.7466
L34.8294 40.5562
" />
<path d="M34.8294 40.5562
L34.8770 40.4609
" />
<path d="M34.8770 40.4609
L34.9723 40.3657
" />
<path d="M34.9723 40.3657
L35.1151 40.3181
" />
<path d="M35.1151 40.3181
L35.2103 40.3181
" />
<path d="M35.2103 40.3181
L35.3532 40.3657
" />
<path d="M35.3532 40.3657
L35.4008 40.4133
" />
<path d="M35.9723 41.3181
L35.8770 41.2704
" />
<path d="M35.8770 41.2704
L35.8294 41.2228
" />
<path d="M35.8294 41.2228
L35.7818 41.1276
" />
<path d="M35.7818 41.1276
L35.7818 40.8419
" />
<path d="M35.7818 40.8419
L35.8294 40.7466
" />
<path d="M35.8294 40.7466
L35.8770 40.6990
" />
<path d="M35.8770 40.6990
L35.9723 40.6514
" />
<path d="M35.9723 40.6514
L36.1151 40.6514
" />
<path d="M36.1151 40.6514
L36.2103 40.6990
" />
<path d="M36.2103 40.6990
L36.2580 40.7466
" />
<path d="M36.2580 40.7466
L36.3056 40.8419
" />
<path d="M36.3056 40.8419
L36.3056 41.1276
" />
<path d="M36.3056 41.1276
L36.2580 41.2228
" />
<path d="M36.2580 41.2228
L36.2103 41.2704
" />
<path d="M36.2103 41.2704
L36.1151 41.3181
" />
<path d="M36.1151 41.3181
L35.9723 41.3181
" />
<path d="M36.7342 40.6514
L36.7342 41.6514
" />
<path d="M36.7342 40.6990
L36.8294 40.6514
" />
<path d="M36.8294 40.6514
L37.0199 40.6514
" />
<path d="M37.0199 40.6514
L37.1151 40.6990
" />
<path d="M37.1151 40.6990
L37.1627 40.7466
" />
<path d="M37.1627 40.7466
L37.2103 40.8419
" />
<path d="M37.2103 40.8419
L37.2103 41.1276
" />
<path d="M37.2103 41.1276
L37.1627 41.2228
" />
<path d="M37.1627 41.2228
L37.1151 41.2704
" />
<path d="M37.1151 41.2704
L37.0199 41.3181
" />
<path d="M37.0199 41.3181
L36.8294 41.3181
" />
<path d="M36.8294 41.3181
L36.7342 41.2704
" />
<path d="M37.6389 40.6514
L37.6389 41.6514
" />
<path d="M37.6389 40.6990
L37.7342 40.6514
" />
<path d="M37.7342 40.6514
L37.9246 40.6514
" />
<path d="M37.9246 40.6514
L38.0199 40.6990
" />
<path d="M38.0199 40.6990
L38.0675 40.7466
" />
<path d="M38.0675 40.7466
L38.1151 40.8419
" />
<path d="M38.1151 40.8419
L38.1151 41.1276
" />
<path d="M38.1151 41.1276
L38.0675 41.2228
" />
<path d="M38.0675 41.2228
L38.0199 41.2704
" />
<path d="M38.0199 41.2704
L37.9246 41.3181
" />
<path d="M37.9246 41.3181
L37.7342 41.3181
" />
<path d="M37.7342 41.3181
L37.6389 41.2704
" />
<path d="M38.9246 41.2704
L38.8294 41.3181
" />
<path d="M38.8294 41.3181
L38.6389 41.3181
" />
<path d="M38.6389 41.3181
L38.5437 41.2704
" />
<path d="M38.5437 41.2704
L38.4961 41.1752
" />
<path d="M38.4961 41.1752
L38.4961 40.7943
" />
<path d="M38.4961 40.7943
L38.5437 40.6990
" />
<path d="M38.5437 40.6990
L38.6389 40.6514
" />
<path d="M38.6389 40.6514
L38.8294 40.6514
" />
<path d="M38.8294 40.6514
L38.9246 40.6990
" />
<path d="M38.9246 40.6990
L38.9723 40.7943
" />
<path d="M38.9723 40.7943
L38.9723 40.8895
" />
<path d="M38.9723 40.8895
L38.4961 40.9847
" />
<path d="M39.4008 41.3181
L39.4008 40.6514
" />
<path d="M39.4008 40.8419
L39.4484 40.7466
" />
<path d="M39.4484 40.7466
L39.4961 40.6990
" />
<path d="M39.4961 40.6990
L39.5913 40.6514
" />
<path d="M39.5913 40.6514
L39.6865 40.6514
" />
<path d="M41.3532 41.3181
L41.0199 40.8419
" />
<path d="M40.7818 41.3181
L40.7818 40.3181
" />
<path d="M40.7818 40.3181
L41.1627 40.3181
" />
<path d="M41.1627 40.3181
L41.2580 40.3657
" />
<path d="M41.2580 40.3657
L41.3056 40.4133
" />
<path d="M41.3056 40.4133
L41.3532 40.5085
" />
<path d="M41.3532 40.5085
L41.3532 40.6514
" />
<path d="M41.3532 40.6514
L41.3056 40.7466
" />
<path d="M41.3056 40.7466
L41.2580 40.7943
" />
<path d="M41.2580 40.7943
L41.1627 40.8419
" />
<path d="M41.1627 40.8419
L40.7818 40.8419
" />
<path d="M42.1627 41.2704
L42.0675 41.3181
" />
<path d="M42.0675 41.3181
L41.8770 41.3181
" />
<path d="M41.8770 41.3181
L41.7818 41.2704
" />
<path d="M41.7818 41.2704
L41.7342 41.1752
" />
<path d="M41.7342 41.1752
L41.7342 40.7943
" />
<path d="M41.7342 40.7943
L41.7818 40.6990
" />
<path d="M41.7818 40.6990
L41.8770 40.6514
" />
<path d="M41.8770 40.6514
L42.0675 40.6514
" />
<path d="M42.0675 40.6514
L42.1627 40.6990
" />
<path d="M42.1627 40.6990
L42.2104 40.7943
" />
<path d="M42.2104 40.7943
L42.2104 40.8895
" />
<path d="M42.2104 40.8895
L41.7342 40.9847
" />
<path d="M42.6389 41.3181
L42.6389 40.6514
" />
<path d="M42.6389 40.7466
L42.6865 40.6990
" />
<path d="M42.6865 40.6990
L42.7818 40.6514
" />
<path d="M42.7818 40.6514
L42.9246 40.6514
" />
<path d="M42.9246 40.6514
L43.0199 40.6990
" />
<path d="M43.0199 40.6990
L43.0675 40.7943
" />
<path d="M43.0675 40.7943
L43.0675 41.3181
" />
<path d="M43.0675 40.7943
L43.1151 40.6990
" />
<path d="M43.1151 40.6990
L43.2104 40.6514
" />
<path d="M43.2104 40.6514
L43.3532 40.6514
" />
<path d="M43.3532 40.6514
L43.4484 40.6990
" />
<path d="M43.4484 40.6990
L43.4961 40.7943
" />
<path d="M43.4961 40.7943
L43.4961 41.3181
" />
<path d="M44.1151 41.3181
L44.0199 41.2704
" />
<path d="M44.0199 41.2704
L43.9723 41.2228
" />
<path d="M43.9723 41.2228
L43.9246 41.1276
" />
<path d="M43.9246 41.1276
L43.9246 40.8419
" />
<path d="M43.9246 40.8419
L43.9723 40.7466
" />
<path d="M43.9723 40.7466
L44.0199 40.6990
" />
<path d="M44.0199 40.6990
L44.1151 40.6514
" />
<path d="M44.1151 40.6514
L44.2580 40.6514
" />
<path d="M44.2580 40.6514
L44.3532 40.6990
" />
<path d="M44.3532 40.6990
L44.4008 40.7466
" />
<path d="M44.4008 40.7466
L44.4484 40.8419
" />
<path d="M44.4484 40.8419
L44.4484 41.1276
" />
<path d="M44.4484 41.1276
L44.4008 41.2228
" />
<path d="M44.4008 41.2228
L44.3532 41.2704
" />
<path d="M44.3532 41.2704
L44.2580 41.3181
" />
<path d="M44.2580 41.3181
L44.1151 41.3181
" />
<path d="M44.7818 40.6514
L45.0199 41.3181
" />
<path d="M45.0199 41.3181
L45.2580 40.6514
" />
<path d="M46.0675 41.3181
L46.0675 40.7943
" />
<path d="M46.0675 40.7943
L46.0199 40.6990
" />
<path d="M46.0199 40.6990
L45.9246 40.6514
" />
<path d="M45.9246 40.6514
L45.7342 40.6514
" />
<path d="M45.7342 40.6514
L45.6389 40.6990
" />
<path d="M46.0675 41.2704
L45.9723 41.3181
" />
<path d="M45.9723 41.3181
L45.7342 41.3181
" />
<path d="M45.7342 41.3181
L45.6389 41.2704
" />
<path d="M45.6389 41.2704
L45.5913 41.1752
" />
<path d="M45.5913 41.1752
L45.5913 41.0800
" />
<path d="M45.5913 41.0800
L45.6389 40.9847
" />
<path d="M45.6389 40.9847
L45.7342 40.9371
" />
<path d="M45.7342 40.9371
L45.9723 40.9371
" />
<path d="M45.9723 40.9371
L46.0675 40.8895
" />
<path d="M46.6865 41.3181
L46.5913 41.2704
" />
<path d="M46.5913 41.2704
L46.5437 41.1752
" />
<path d="M46.5437 41.1752
L46.5437 40.3181
" />
</g><text x="41.4783" y="21.1282"
textLength="12.0119" font-size="1.3333" lengthAdjust="spacingAndGlyphs"
text-anchor="start" opacity="0">&lt;-- Heat Sink</text>
<g class="stroked-text"><desc>&lt;-- Heat Sink</desc>
<path d="M42.5770 20.3314
L41.8151 20.6171
" />
<path d="M41.8151 20.6171
L42.5770 20.9028
" />
<path d="M43.0532 20.6171
L43.8151 20.6171
" />
<path d="M44.2913 20.6171
L45.0532 20.6171
" />
<path d="M46.2913 20.9981
L46.2913 19.9981
" />
<path d="M46.2913 20.4743
L46.8627 20.4743
" />
<path d="M46.8627 20.9981
L46.8627 19.9981
" />
<path d="M47.7199 20.9505
L47.6246 20.9981
" />
<path d="M47.6246 20.9981
L47.4342 20.9981
" />
<path d="M47.4342 20.9981
L47.3389 20.9505
" />
<path d="M47.3389 20.9505
L47.2913 20.8552
" />
<path d="M47.2913 20.8552
L47.2913 20.4743
" />
<path d="M47.2913 20.4743
L47.3389 20.3790
" />
<path d="M47.3389 20.3790
L47.4342 20.3314
" />
<path d="M47.4342 20.3314
L47.6246 20.3314
" />
<path d="M47.6246 20.3314
L47.7199 20.3790
" />
<path d="M47.7199 20.3790
L47.7675 20.4743
" />
<path d="M47.7675 20.4743
L47.7675 20.5695
" />
<path d="M47.7675 20.5695
L47.2913 20.6647
" />
<path d="M48.6246 20.9981
L48.6246 20.4743
" />
<path d="M48.6246 20.4743
L48.5770 20.3790
" />
<path d="M48.5770 20.3790
L48.4818 20.3314
" />
<path d="M48.4818 20.3314
L48.2913 20.3314
" />
<path d="M48.2913 20.3314
L48.1961 20.3790
" />
<path d="M48.6246 20.9505
L48.5294 20.9981
" />
<path d="M48.5294 20.9981
L48.2913 20.9981
" />
<path d="M48.2913 20.9981
L48.1961 20.9505
" />
<path d="M48.1961 20.9505
L48.1484 20.8552
" />
<path d="M48.1484 20.8552
L48.1484 20.7600
" />
<path d="M48.1484 20.7600
L48.1961 20.6647
" />
<path d="M48.1961 20.6647
L48.2913 20.6171
" />
<path d="M48.2913 20.6171
L48.5294 20.6171
" />
<path d="M48.5294 20.6171
L48.6246 20.5695
" />
<path d="M48.9580 20.3314
L49.3389 20.3314
" />
<path d="M49.1008 19.9981
L49.1008 20.8552
" />
<path d="M49.1008 20.8552
L49.1484 20.9505
" />
<path d="M49.1484 20.9505
L49.2437 20.9981
" />
<path d="M49.2437 20.9981
L49.3389 20.9981
" />
<path d="M50.3865 20.9505
L50.5294 20.9981
" />
<path d="M50.5294 20.9981
L50.7675 20.9981
" />
<path d="M50.7675 20.9981
L50.8627 20.9505
" />
<path d="M50.8627 20.9505
L50.9104 20.9028
" />
<path d="M50.9104 20.9028
L50.9580 20.8076
" />
<path d="M50.9580 20.8076
L50.9580 20.7124
" />
<path d="M50.9580 20.7124
L50.9104 20.6171
" />
<path d="M50.9104 20.6171
L50.8627 20.5695
" />
<path d="M50.8627 20.5695
L50.7675 20.5219
" />
<path d="M50.7675 20.5219
L50.5770 20.4743
" />
<path d="M50.5770 20.4743
L50.4818 20.4266
" />
<path d="M50.4818 20.4266
L50.4342 20.3790
" />
<path d="M50.4342 20.3790
L50.3865 20.2838
" />
<path d="M50.3865 20.2838
L50.3865 20.1885
" />
<path d="M50.3865 20.1885
L50.4342 20.0933
" />
<path d="M50.4342 20.0933
L50.4818 20.0457
" />
<path d="M50.4818 20.0457
L50.5770 19.9981
" />
<path d="M50.5770 19.9981
L50.8151 19.9981
" />
<path d="M50.8151 19.9981
L50.9580 20.0457
" />
<path d="M51.3865 20.9981
L51.3865 20.3314
" />
<path d="M51.3865 19.9981
L51.3389 20.0457
" />
<path d="M51.3389 20.0457
L51.3865 20.0933
" />
<path d="M51.3865 20.0933
L51.4342 20.0457
" />
<path d="M51.4342 20.0457
L51.3865 19.9981
" />
<path d="M51.3865 19.9981
L51.3865 20.0933
" />
<path d="M51.8627 20.3314
L51.8627 20.9981
" />
<path d="M51.8627 20.4266
L51.9104 20.3790
" />
<path d="M51.9104 20.3790
L52.0056 20.3314
" />
<path d="M52.0056 20.3314
L52.1484 20.3314
" />
<path d="M52.1484 20.3314
L52.2437 20.3790
" />
<path d="M52.2437 20.3790
L52.2913 20.4743
" />
<path d="M52.2913 20.4743
L52.2913 20.9981
" />
<path d="M52.7675 20.9981
L52.7675 19.9981
" />
<path d="M52.8627 20.6171
L53.1484 20.9981
" />
<path d="M53.1484 20.3314
L52.7675 20.7124
" />
</g></g>
<g style="fill:#5994DC; fill-opacity:1.0000; stroke:none;">
<circle cx="17.3483" cy="11.0083" r="0.0500" /> 
<circle cx="17.2859" cy="11.4017" r="0.0500" /> 
<circle cx="17.1046" cy="11.7564" r="0.0500" /> 
<circle cx="16.8223" cy="12.0375" r="0.0500" /> 
<circle cx="16.4669" cy="12.2173" r="0.0500" /> 
<circle cx="16.0732" cy="12.2782" r="0.0500" /> 
<circle cx="15.6801" cy="12.2142" r="0.0500" /> 
<circle cx="15.3261" cy="12.0315" r="0.0500" /> 
<circle cx="15.0461" cy="11.7481" r="0.0500" /> 
<circle cx="14.8677" cy="11.3920" r="0.0500" /> 
<circle cx="14.8084" cy="10.9981" r="0.0500" /> 
<circle cx="14.8740" cy="10.6052" r="0.0500" /> 
<circle cx="15.0581" cy="10.2519" r="0.0500" /> 
<circle cx="15.3426" cy="9.9731" r="0.0500" /> 
<circle cx="15.6995" cy="9.7961" r="0.0500" /> 
<circle cx="16.0936" cy="9.7383" r="0.0500" /> 
<circle cx="16.4862" cy="9.8055" r="0.0500" /> 
<circle cx="16.8387" cy="9.9911" r="0.0500" /> 
<circle cx="17.1164" cy="10.2767" r="0.0500" /> 
<circle cx="17.2920" cy="10.6342" r="0.0500" /> 
<circle cx="30.0483" cy="41.4483" r="0.0500" /> 
<circle cx="29.9859" cy="41.8417" r="0.0500" /> 
<circle cx="29.8046" cy="42.1964" r="0.0500" /> 
<circle cx="29.5223" cy="42.4775" r="0.0500" /> 
<circle cx="29.1669" cy="42.6573" r="0.0500" /> 
<circle cx="28.7732" cy="42.7182" r="0.0500" /> 
<circle cx="28.3801" cy="42.6542" r="0.0500" /> 
<circle cx="28.0261" cy="42.4715" r="0.0500" /> 
<circle cx="27.7461" cy="42.1881" r="0.0500" /> 
<circle cx="27.5677" cy="41.8320" r="0.0500" /> 
<circle cx="27.5084" cy="41.4381" r="0.0500" /> 
<circle cx="27.5740" cy="41.0452" r="0.0500" /> 
<circle cx="27.7581" cy="40.6919" r="0.0500" /> 
<circle cx="28.0426" cy="40.4131" r="0.0500" /> 
<circle cx="28.3995" cy="40.2361" r="0.0500" /> 
<circle cx="28.7936" cy="40.1783" r="0.0500" /> 
<circle cx="29.1862" cy="40.2455" r="0.0500" /> 
<circle cx="29.5387" cy="40.4311" r="0.0500" /> 
<circle cx="29.8164" cy="40.7167" r="0.0500" /> 
<circle cx="29.9920" cy="41.0742" r="0.0500" /> 
<circle cx="24.9683" cy="49.0682" r="0.0500" /> 
<circle cx="24.9059" cy="49.4617" r="0.0500" /> 
<circle cx="24.7246" cy="49.8164" r="0.0500" /> 
<circle cx="24.4423" cy="50.0975" r="0.0500" /> 
<circle cx="24.0869" cy="50.2773" r="0.0500" /> 
<circle cx="23.6932" cy="50.3382" r="0.0500" /> 
<circle cx="23.3001" cy="50.2742" r="0.0500" /> 
<circle cx="22.9461" cy="50.0915" r="0.0500" /> 
<circle cx="22.6661" cy="49.8081" r="0.0500" /> 
<circle cx="22.4877" cy="49.4520" r="0.0500" /> 
<circle cx="22.4284" cy="49.0581" r="0.0500" /> 
<circle cx="22.4940" cy="48.6652" r="0.0500" /> 
<circle cx="22.6781" cy="48.3119" r="0.0500" /> 
<circle cx="22.9626" cy="48.0331" r="0.0500" /> 
<circle cx="23.3195" cy="47.8561" r="0.0500" /> 
<circle cx="23.7136" cy="47.7983" r="0.0500" /> 
<circle cx="24.1062" cy="47.8655" r="0.0500" /> 
<circle cx="24.4587" cy="48.0511" r="0.0500" /> 
<circle cx="24.7364" cy="48.3367" r="0.0500" /> 
<circle cx="24.9120" cy="48.6942" r="0.0500" /> 
<circle cx="22.4283" cy="33.8282" r="0.0500" /> 
<circle cx="22.3659" cy="34.2217" r="0.0500" /> 
<circle cx="22.1846" cy="34.5764" r="0.0500" /> 
<circle cx="21.9023" cy="34.8575" r="0.0500" /> 
<circle cx="21.5469" cy="35.0373" r="0.0500" /> 
<circle cx="21.1532" cy="35.0982" r="0.0500" /> 
<circle cx="20.7601" cy="35.0342" r="0.0500" /> 
<circle cx="20.4061" cy="34.8515" r="0.0500" /> 
<circle cx="20.1261" cy="34.5681" r="0.0500" /> 
<circle cx="19.9477" cy="34.2120" r="0.0500" /> 
<circle cx="19.8884" cy="33.8181" r="0.0500" /> 
<circle cx="19.9540" cy="33.4252" r="0.0500" /> 
<circle cx="20.1381" cy="33.0719" r="0.0500" /> 
<circle cx="20.4226" cy="32.7931" r="0.0500" /> 
<circle cx="20.7795" cy="32.6161" r="0.0500" /> 
<circle cx="21.1736" cy="32.5583" r="0.0500" /> 
<circle cx="21.5662" cy="32.6255" r="0.0500" /> 
<circle cx="21.9187" cy="32.8111" r="0.0500" /> 
<circle cx="22.1964" cy="33.0967" r="0.0500" /> 
<circle cx="22.3720" cy="33.4542" r="0.0500" /> 
<circle cx="17.3483" cy="31.2882" r="0.0500" /> 
<circle cx="17.2859" cy="31.6817" r="0.0500" /> 
<circle cx="17.1046" cy="32.0364" r="0.0500" /> 
<circle cx="16.8223" cy="32.3175" r="0.0500" /> 
<circle cx="16.4669" cy="32.4973" r="0.0500" /> 
<circle cx="16.0732" cy="32.5582" r="0.0500" /> 
<circle cx="15.6801" cy="32.4942" r="0.0500" /> 
<circle cx="15.3261" cy="32.3115" r="0.0500" /> 
<circle cx="15.0461" cy="32.0281" r="0.0500" /> 
<circle cx="14.8677" cy="31.6720" r="0.0500" /> 
<circle cx="14.8084" cy="31.2781" r="0.0500" /> 
<circle cx="14.8740" cy="30.8852" r="0.0500" /> 
<circle cx="15.0581" cy="30.5319" r="0.0500" /> 
<circle cx="15.3426" cy="30.2531" r="0.0500" /> 
<circle cx="15.6995" cy="30.0761" r="0.0500" /> 
<circle cx="16.0936" cy="30.0183" r="0.0500" /> 
<circle cx="16.4862" cy="30.0855" r="0.0500" /> 
<circle cx="16.8387" cy="30.2711" r="0.0500" /> 
<circle cx="17.1164" cy="30.5567" r="0.0500" /> 
<circle cx="17.2920" cy="30.9142" r="0.0500" /> 
<circle cx="27.5083" cy="36.3682" r="0.0500" /> 
<circle cx="27.4459" cy="36.7617" r="0.0500" /> 
<circle cx="27.2646" cy="37.1164" r="0.0500" /> 
<circle cx="26.9823" cy="37.3975" r="0.0500" /> 
<circle cx="26.6269" cy="37.5773" r="0.0500" /> 
<circle cx="26.2332" cy="37.6382" r="0.0500" /> 
<circle cx="25.8401" cy="37.5742" r="0.0500" /> 
<circle cx="25.4861" cy="37.3915" r="0.0500" /> 
<circle cx="25.2061" cy="37.1081" r="0.0500" /> 
<circle cx="25.0277" cy="36.7520" r="0.0500" /> 
<circle cx="24.9684" cy="36.3581" r="0.0500" /> 
<circle cx="25.0340" cy="35.9652" r="0.0500" /> 
<circle cx="25.2181" cy="35.6119" r="0.0500" /> 
<circle cx="25.5026" cy="35.3331" r="0.0500" /> 
<circle cx="25.8595" cy="35.1561" r="0.0500" /> 
<circle cx="26.2536" cy="35.0983" r="0.0500" /> 
<circle cx="26.6462" cy="35.1655" r="0.0500" /> 
<circle cx="26.9987" cy="35.3511" r="0.0500" /> 
<circle cx="27.2764" cy="35.6367" r="0.0500" /> 
<circle cx="27.4520" cy="35.9942" r="0.0500" /> 
<circle cx="19.8883" cy="36.3682" r="0.0500" /> 
<circle cx="19.8259" cy="36.7617" r="0.0500" /> 
<circle cx="19.6446" cy="37.1164" r="0.0500" /> 
<circle cx="19.3623" cy="37.3975" r="0.0500" /> 
<circle cx="19.0069" cy="37.5773" r="0.0500" /> 
<circle cx="18.6132" cy="37.6382" r="0.0500" /> 
<circle cx="18.2201" cy="37.5742" r="0.0500" /> 
<circle cx="17.8661" cy="37.3915" r="0.0500" /> 
<circle cx="17.5861" cy="37.1081" r="0.0500" /> 
<circle cx="17.4077" cy="36.7520" r="0.0500" /> 
<circle cx="17.3484" cy="36.3581" r="0.0500" /> 
<circle cx="17.4140" cy="35.9652" r="0.0500" /> 
<circle cx="17.5981" cy="35.6119" r="0.0500" /> 
<circle cx="17.8826" cy="35.3331" r="0.0500" /> 
<circle cx="18.2395" cy="35.1561" r="0.0500" /> 
<circle cx="18.6336" cy="35.0983" r="0.0500" /> 
<circle cx="19.0262" cy="35.1655" r="0.0500" /> 
<circle cx="19.3787" cy="35.3511" r="0.0500" /> 
<circle cx="19.6564" cy="35.6367" r="0.0500" /> 
<circle cx="19.8320" cy="35.9942" r="0.0500" /> 
<circle cx="24.9683" cy="28.7482" r="0.0500" /> 
<circle cx="24.9059" cy="29.1417" r="0.0500" /> 
<circle cx="24.7246" cy="29.4964" r="0.0500" /> 
<circle cx="24.4423" cy="29.7775" r="0.0500" /> 
<circle cx="24.0869" cy="29.9573" r="0.0500" /> 
<circle cx="23.6932" cy="30.0182" r="0.0500" /> 
<circle cx="23.3001" cy="29.9542" r="0.0500" /> 
<circle cx="22.9461" cy="29.7715" r="0.0500" /> 
<circle cx="22.6661" cy="29.4881" r="0.0500" /> 
<circle cx="22.4877" cy="29.1320" r="0.0500" /> 
<circle cx="22.4284" cy="28.7381" r="0.0500" /> 
<circle cx="22.4940" cy="28.3452" r="0.0500" /> 
<circle cx="22.6781" cy="27.9919" r="0.0500" /> 
<circle cx="22.9626" cy="27.7131" r="0.0500" /> 
<circle cx="23.3195" cy="27.5361" r="0.0500" /> 
<circle cx="23.7136" cy="27.4783" r="0.0500" /> 
<circle cx="24.1062" cy="27.5455" r="0.0500" /> 
<circle cx="24.4587" cy="27.7311" r="0.0500" /> 
<circle cx="24.7364" cy="28.0167" r="0.0500" /> 
<circle cx="24.9120" cy="28.3742" r="0.0500" /> 
<circle cx="14.8083" cy="43.9883" r="0.0500" /> 
<circle cx="14.7459" cy="44.3817" r="0.0500" /> 
<circle cx="14.5646" cy="44.7364" r="0.0500" /> 
<circle cx="14.2823" cy="45.0175" r="0.0500" /> 
<circle cx="13.9269" cy="45.1973" r="0.0500" /> 
<circle cx="13.5332" cy="45.2582" r="0.0500" /> 
<circle cx="13.1401" cy="45.1942" r="0.0500" /> 
<circle cx="12.7861" cy="45.0115" r="0.0500" /> 
<circle cx="12.5061" cy="44.7281" r="0.0500" /> 
<circle cx="12.3277" cy="44.3720" r="0.0500" /> 
<circle cx="12.2684" cy="43.9781" r="0.0500" /> 
<circle cx="12.3340" cy="43.5852" r="0.0500" /> 
<circle cx="12.5181" cy="43.2319" r="0.0500" /> 
<circle cx="12.8026" cy="42.9531" r="0.0500" /> 
<circle cx="13.1595" cy="42.7761" r="0.0500" /> 
<circle cx="13.5536" cy="42.7183" r="0.0500" /> 
<circle cx="13.9462" cy="42.7855" r="0.0500" /> 
<circle cx="14.2987" cy="42.9711" r="0.0500" /> 
<circle cx="14.5764" cy="43.2567" r="0.0500" /> 
<circle cx="14.7520" cy="43.6142" r="0.0500" /> 
<circle cx="17.3483" cy="49.0682" r="0.0500" /> 
<circle cx="17.2859" cy="49.4617" r="0.0500" /> 
<circle cx="17.1046" cy="49.8164" r="0.0500" /> 
<circle cx="16.8223" cy="50.0975" r="0.0500" /> 
<circle cx="16.4669" cy="50.2773" r="0.0500" /> 
<circle cx="16.0732" cy="50.3382" r="0.0500" /> 
<circle cx="15.6801" cy="50.2742" r="0.0500" /> 
<circle cx="15.3261" cy="50.0915" r="0.0500" /> 
<circle cx="15.0461" cy="49.8081" r="0.0500" /> 
<circle cx="14.8677" cy="49.4520" r="0.0500" /> 
<circle cx="14.8084" cy="49.0581" r="0.0500" /> 
<circle cx="14.8740" cy="48.6652" r="0.0500" /> 
<circle cx="15.0581" cy="48.3119" r="0.0500" /> 
<circle cx="15.3426" cy="48.0331" r="0.0500" /> 
<circle cx="15.6995" cy="47.8561" r="0.0500" /> 
<circle cx="16.0936" cy="47.7983" r="0.0500" /> 
<circle cx="16.4862" cy="47.8655" r="0.0500" /> 
<circle cx="16.8387" cy="48.0511" r="0.0500" /> 
<circle cx="17.1164" cy="48.3367" r="0.0500" /> 
<circle cx="17.2920" cy="48.6942" r="0.0500" /> 
<circle cx="24.9683" cy="36.3682" r="0.0500" /> 
<circle cx="24.9059" cy="36.7617" r="0.0500" /> 
<circle cx="24.7246" cy="37.1164" r="0.0500" /> 
<circle cx="24.4423" cy="37.3975" r="0.0500" /> 
<circle cx="24.0869" cy="37.5773" r="0.0500" /> 
<circle cx="23.6932" cy="37.6382" r="0.0500" /> 
<circle cx="23.3001" cy="37.5742" r="0.0500" /> 
<circle cx="22.9461" cy="37.3915" r="0.0500" /> 
<circle cx="22.6661" cy="37.1081" r="0.0500" /> 
<circle cx="22.4877" cy="36.7520" r="0.0500" /> 
<circle cx="22.4284" cy="36.3581" r="0.0500" /> 
<circle cx="22.4940" cy="35.9652" r="0.0500" /> 
<circle cx="22.6781" cy="35.6119" r="0.0500" /> 
<circle cx="22.9626" cy="35.3331" r="0.0500" /> 
<circle cx="23.3195" cy="35.1561" r="0.0500" /> 
<circle cx="23.7136" cy="35.0983" r="0.0500" /> 
<circle cx="24.1062" cy="35.1655" r="0.0500" /> 
<circle cx="24.4587" cy="35.3511" r="0.0500" /> 
<circle cx="24.7364" cy="35.6367" r="0.0500" /> 
<circle cx="24.9120" cy="35.9942" r="0.0500" /> 
<path style="fill:none; 
stroke:#D0D2CD; stroke-width:0.1000; stroke-opacity:1; 
stroke-linecap:round; stroke-linejoin:round;fill:none"
d="M 5.9183,5.8882
33.8583,5.8882
33.8583,59.2282
5.9183,59.2282
Z" /> 
</g> 
</svg>
